<svg width="429" height="444" viewBox="0 0 429 444" fill="none" xmlns="http://www.w3.org/2000/svg">
<path d="M395.74 88.3498C400.35 86.4198 403.63 81.6598 403.65 76.0598C403.68 68.7198 398.13 62.7498 391.25 62.7198C384.37 62.6898 378.77 68.6098 378.74 75.9498C378.72 81.5998 382.02 86.4098 386.68 88.3498C367.51 91.2398 368.38 112.07 368.38 112.07L413.71 112.28C413.71 112.28 414.74 91.2198 395.74 88.3498Z" fill="#F5F5F5"/>
<path d="M127.89 10.48L98.2599 0L68.9199 10.34C65.1699 12.08 61.8899 13.13 61.8899 16.56V33.67C61.8899 45.55 65.0499 57.32 71.5499 67.72C77.0199 76.47 85.4999 85.47 98.5399 91.2C110.53 87.36 119.48 77.14 124.96 68.39C131.46 58 134.62 46.22 134.62 34.34V18.95C134.63 14.05 131.99 11.66 127.89 10.48Z" fill="#EAEBEB"/>
<path d="M108.1 38.0899C108.1 33.5599 104.43 29.8899 99.8999 29.8899C95.3699 29.8899 91.6999 33.5599 91.6999 38.0899C91.6999 41.8399 94.2299 44.9699 97.6599 45.9399V58.1999H102.14V45.9499C105.57 44.9699 108.1 41.8399 108.1 38.0899Z" fill="white"/>
<path d="M379.81 169.05L384.86 171.78L382.59 175.58L377.49 172.57L377.58 178.18H373.22L373.27 172.52L368.17 175.58L365.94 171.78L370.99 169.05L365.94 166.27L368.17 162.47L373.27 165.53L373.22 159.87H377.58L377.49 165.53L382.59 162.47L384.86 166.27L379.81 169.05Z" fill="#E0E0E0"/>
<path d="M400.85 169.05L405.9 171.78L403.63 175.58L398.53 172.57L398.62 178.18H394.26L394.31 172.52L389.21 175.58L386.98 171.78L392.03 169.05L386.98 166.27L389.21 162.47L394.31 165.53L394.26 159.87H398.62L398.53 165.53L403.63 162.47L405.9 166.27L400.85 169.05Z" fill="#E0E0E0"/>
<path d="M421.89 169.05L426.94 171.78L424.67 175.58L419.57 172.57L419.66 178.18H415.3L415.35 172.52L410.25 175.58L408.02 171.78L413.07 169.05L408.02 166.27L410.25 162.47L415.35 165.53L415.3 159.87H419.66L419.57 165.53L424.67 162.47L426.94 166.27L421.89 169.05Z" fill="#E0E0E0"/>
<path d="M207.8 408.41V439.47H253.23H303.33V408.41H207.8Z" fill="#F5F5F5"/>
<path d="M203.8 399.73V408.41H306.67V399.73H253.23H203.8Z" fill="#EBEBEB"/>
<path d="M255.23 439.47H303.33V408.41H306.67V399.73H253.23V407.61L255.23 439.47Z" fill="#EBEBEB"/>
<path d="M240.53 413.42H221.16V418.1H240.53V413.42Z" fill="#E0E0E0"/>
<path d="M243.55 423.94H218.67V433.81H243.55V423.94Z" fill="white"/>
<path d="M222.5 368.709V399.769H267.93H318.03V368.709H222.5Z" fill="#F5F5F5"/>
<path d="M218.49 360.02V368.71H321.37V360.02H267.93H218.49Z" fill="#EBEBEB"/>
<path d="M269.93 399.77H318.03V368.71H321.37V360.02H267.93V367.9L269.93 399.77Z" fill="#EBEBEB"/>
<path d="M255.23 373.719H235.86V378.399H255.23V373.719Z" fill="#E0E0E0"/>
<path d="M258.25 384.24H233.37V394.109H258.25V384.24Z" fill="white"/>
<path d="M428.14 439.71C428.14 439.85 332.29 439.97 214.08 439.97C95.83 439.97 0 439.86 0 439.71C0 439.56 95.83 439.45 214.08 439.45C332.29 439.45 428.14 439.57 428.14 439.71Z" fill="#263238"/>
<path d="M339.78 196.31H161.14C157.52 196.31 154.58 193.37 154.58 189.75V25.4103C154.58 21.7903 157.52 18.8503 161.14 18.8503H339.78C343.4 18.8503 346.34 21.7903 346.34 25.4103V189.76C346.34 193.38 343.4 196.31 339.78 196.31Z" fill="white"/>
<path d="M339.78 196.31C339.78 196.31 339.94 196.29 340.25 196.27C340.56 196.25 341.03 196.18 341.62 196.01C342.21 195.83 342.93 195.52 343.66 194.97C344.39 194.42 345.14 193.63 345.65 192.54C346.22 191.46 346.33 190.09 346.28 188.6C346.28 187.11 346.27 185.47 346.27 183.7C346.26 180.16 346.26 176.07 346.25 171.47C346.23 153.06 346.2 126.44 346.17 93.5503C346.16 77.1003 346.15 59.0803 346.14 39.7403C346.13 34.9103 346.12 30.0003 346.11 25.0003C345.99 22.5803 344.32 20.3003 342 19.4603C340.85 18.9803 339.6 19.0603 338.31 19.0603C337.03 19.0603 335.75 19.0603 334.46 19.0603C324.16 19.0603 313.55 19.0703 302.68 19.0703C259.18 19.0803 211.36 19.0803 161.17 19.0903C159.66 19.0903 158.17 19.6403 157.03 20.6303C155.89 21.6103 155.12 23.0103 154.92 24.4903C154.82 25.2203 154.86 26.0103 154.85 26.7903V29.1203C154.85 30.6703 154.85 32.2303 154.85 33.7803C154.85 39.9803 154.85 46.1403 154.85 52.2503C154.85 64.4703 154.85 76.5203 154.85 88.3603C154.84 112.03 154.84 134.87 154.83 156.62C154.83 167.5 154.82 178.1 154.82 188.41C154.83 189.05 154.8 189.71 154.85 190.32C154.92 190.93 155.04 191.55 155.28 192.12C155.74 193.27 156.54 194.26 157.55 194.96C158.56 195.66 159.76 196.05 160.98 196.08C162.24 196.08 163.49 196.09 164.74 196.09C169.74 196.09 174.66 196.09 179.49 196.1C198.83 196.11 216.85 196.12 233.3 196.13C266.19 196.17 292.81 196.19 311.22 196.21C320.41 196.23 327.55 196.25 332.4 196.26C334.82 196.27 336.66 196.28 337.91 196.29C339.14 196.3 339.78 196.31 339.78 196.31C339.78 196.31 339.14 196.33 337.9 196.34C336.65 196.35 334.81 196.35 332.39 196.37C327.54 196.38 320.4 196.4 311.21 196.42C292.81 196.44 266.19 196.47 233.29 196.5C216.84 196.51 198.82 196.52 179.48 196.53C174.64 196.53 169.73 196.53 164.73 196.54C163.48 196.54 162.22 196.54 160.96 196.53C159.66 196.5 158.36 196.08 157.28 195.33C156.2 194.58 155.34 193.52 154.85 192.29C154.59 191.68 154.46 191.02 154.39 190.36C154.34 189.69 154.37 189.06 154.36 188.41C154.36 178.11 154.35 167.5 154.35 156.62C154.35 134.87 154.34 112.04 154.33 88.3603C154.33 76.5203 154.33 64.4803 154.33 52.2503C154.33 46.1403 154.33 39.9803 154.33 33.7803C154.33 32.2303 154.33 30.6803 154.33 29.1203V26.7903C154.34 26.0103 154.29 25.2403 154.41 24.4203C154.63 22.8103 155.45 21.2903 156.69 20.2403C157.92 19.1703 159.54 18.5703 161.17 18.5703C211.36 18.5803 259.18 18.5803 302.68 18.5903C313.55 18.5903 324.16 18.6003 334.46 18.6003C335.75 18.6003 337.03 18.6003 338.31 18.6003C339.56 18.6003 340.93 18.5203 342.16 19.0403C344.64 19.9403 346.43 22.3803 346.55 24.9703C346.55 29.9703 346.56 34.8903 346.56 39.7303C346.55 59.0703 346.54 77.0903 346.53 93.5403C346.49 126.43 346.47 153.06 346.45 171.46C346.44 176.06 346.43 180.14 346.43 183.69C346.43 185.46 346.42 187.09 346.42 188.59C346.47 190.07 346.34 191.49 345.76 192.58C345.24 193.69 344.47 194.49 343.73 195.03C342.98 195.58 342.25 195.88 341.66 196.05C341.06 196.21 340.59 196.27 340.27 196.28C339.93 196.31 339.78 196.31 339.78 196.31Z" fill="#263238"/>
<path d="M169.05 31.1403C169.05 32.9703 167.57 34.4603 165.73 34.4603C163.9 34.4603 162.41 32.9803 162.41 31.1403C162.41 29.3103 163.89 27.8203 165.73 27.8203C167.57 27.8303 169.05 29.3103 169.05 31.1403Z" fill="#263238"/>
<path d="M175.42 34.4603C177.254 34.4603 178.74 32.9739 178.74 31.1403C178.74 29.3067 177.254 27.8203 175.42 27.8203C173.586 27.8203 172.1 29.3067 172.1 31.1403C172.1 32.9739 173.586 34.4603 175.42 34.4603Z" fill="#263238"/>
<path d="M185.1 34.4603C186.934 34.4603 188.42 32.9739 188.42 31.1403C188.42 29.3067 186.934 27.8203 185.1 27.8203C183.266 27.8203 181.78 29.3067 181.78 31.1403C181.78 32.9739 183.266 34.4603 185.1 34.4603Z" fill="#263238"/>
<path d="M346.34 40.5503C346.34 40.6903 303.41 40.8103 250.47 40.8103C197.51 40.8103 154.59 40.6903 154.59 40.5503C154.59 40.4103 197.51 40.2903 250.47 40.2903C303.41 40.2903 346.34 40.4003 346.34 40.5503Z" fill="#263238"/>
<path d="M277.55 107.4C277.55 107.4 277.63 107.29 277.78 107.09C277.82 107.04 277.86 106.98 277.91 106.92C277.95 106.85 277.99 106.78 278.04 106.7C278.13 106.54 278.25 106.35 278.33 106.12C278.38 106.01 278.43 105.89 278.48 105.76C278.52 105.63 278.56 105.49 278.6 105.34C278.65 105.19 278.67 105.04 278.7 104.87C278.72 104.7 278.77 104.54 278.77 104.35C278.85 103.63 278.8 102.79 278.66 101.86C278.37 100 277.58 97.8103 276.38 95.4303C275.17 93.0403 273.51 90.4803 271.47 87.8003C269.43 85.1203 266.98 82.3603 264.15 79.5803C261.33 76.8103 258.13 74.0203 254.55 71.3803C252.76 70.0603 250.87 68.7803 248.87 67.5803C246.88 66.3703 244.78 65.2503 242.56 64.2703C240.35 63.3103 238.01 62.4703 235.54 62.0703C234.31 61.8803 233.04 61.7903 231.8 61.9803C231.18 62.0803 230.57 62.2503 229.99 62.5003C229.42 62.7803 228.9 63.1403 228.47 63.6103C228.06 64.0903 227.75 64.6503 227.54 65.2403C227.35 65.8403 227.25 66.4703 227.22 67.1003C227.17 68.3603 227.41 69.6103 227.74 70.8103C228.42 73.2103 229.51 75.4403 230.72 77.5303C231.94 79.6203 233.3 81.5803 234.72 83.4203C236.14 85.2603 237.63 87.0003 239.14 88.6303C242.17 91.8903 245.3 94.7503 248.38 97.2403C251.46 99.7303 254.49 101.85 257.38 103.57C260.27 105.29 263.01 106.65 265.52 107.58C268.02 108.51 270.29 109.04 272.17 109.12C273.11 109.16 273.95 109.11 274.65 108.95C274.83 108.92 274.99 108.86 275.15 108.82C275.31 108.78 275.47 108.73 275.6 108.67C275.74 108.61 275.88 108.56 276 108.51C276.12 108.45 276.24 108.38 276.35 108.32C276.57 108.21 276.74 108.07 276.9 107.96C276.98 107.9 277.05 107.86 277.11 107.81C277.17 107.76 277.22 107.71 277.26 107.66C277.45 107.49 277.55 107.4 277.55 107.4C277.55 107.4 277.46 107.49 277.28 107.67C277.23 107.72 277.18 107.77 277.13 107.82C277.07 107.87 277 107.92 276.92 107.98C276.77 108.09 276.6 108.23 276.38 108.34C276.27 108.4 276.16 108.47 276.03 108.53C275.9 108.58 275.77 108.64 275.62 108.7C275.48 108.76 275.33 108.81 275.16 108.85C275 108.89 274.83 108.96 274.65 108.98C273.94 109.14 273.1 109.2 272.15 109.16C270.26 109.09 267.98 108.57 265.47 107.64C262.95 106.72 260.21 105.37 257.31 103.65C254.41 101.93 251.38 99.8103 248.29 97.3203C245.21 94.8303 242.07 91.9703 239.03 88.7103C237.51 87.0803 236.02 85.3403 234.6 83.4903C233.17 81.6503 231.81 79.6803 230.58 77.5903C229.37 75.4903 228.26 73.2603 227.58 70.8303C227.25 69.6203 227.01 68.3603 227.06 67.0803C227.08 66.4403 227.19 65.8003 227.38 65.1803C227.6 64.5703 227.91 63.9903 228.34 63.5003C228.78 63.0203 229.32 62.6403 229.9 62.3603C230.49 62.0903 231.12 61.9203 231.75 61.8203C233.02 61.6303 234.3 61.7203 235.54 61.9103C238.02 62.3103 240.37 63.1603 242.59 64.1203C244.81 65.1003 246.92 66.2303 248.91 67.4403C250.91 68.6503 252.8 69.9303 254.6 71.2503C258.19 73.9003 261.39 76.6903 264.21 79.4703C267.03 82.2503 269.48 85.0303 271.52 87.7103C273.56 90.3903 275.22 92.9703 276.42 95.3703C277.62 97.7603 278.41 99.9603 278.69 101.83C278.83 102.76 278.87 103.61 278.79 104.33C278.78 104.51 278.74 104.68 278.71 104.85C278.68 105.02 278.66 105.17 278.61 105.32C278.57 105.47 278.53 105.61 278.49 105.74C278.44 105.87 278.39 105.99 278.34 106.11C278.25 106.34 278.14 106.53 278.04 106.69C277.99 106.77 277.95 106.85 277.91 106.91C277.86 106.97 277.82 107.03 277.78 107.08C277.63 107.3 277.55 107.4 277.55 107.4Z" fill="#267FFF"/>
<path d="M286.62 85.4903C286.62 85.4903 286.61 85.3603 286.59 85.1103C286.59 85.0503 286.58 84.9803 286.57 84.9003C286.56 84.8203 286.54 84.7403 286.52 84.6503C286.48 84.4703 286.44 84.2503 286.35 84.0203C286.31 83.9003 286.27 83.7803 286.22 83.6503C286.16 83.5303 286.09 83.4003 286.03 83.2603C285.97 83.1203 285.88 82.9903 285.79 82.8503C285.7 82.7103 285.62 82.5603 285.5 82.4203C285.08 81.8303 284.48 81.2403 283.76 80.6403C282.31 79.4403 280.26 78.3303 277.77 77.3603C275.28 76.3803 272.33 75.5703 269.03 74.9303C265.73 74.2903 262.05 73.8603 258.1 73.6703C254.15 73.4803 249.91 73.5303 245.48 73.9503C243.27 74.1603 241 74.4703 238.71 74.8903C236.42 75.3203 234.1 75.8703 231.8 76.6203C229.51 77.3803 227.2 78.3103 225.1 79.6503C224.06 80.3303 223.05 81.1003 222.25 82.0703C221.85 82.5603 221.51 83.0903 221.25 83.6603C221.01 84.2403 220.87 84.8603 220.86 85.5003C220.87 86.1303 221.01 86.7603 221.25 87.3403C221.51 87.9203 221.85 88.4503 222.25 88.9403C223.05 89.9103 224.06 90.6903 225.1 91.3603C227.2 92.7103 229.51 93.6303 231.8 94.3903C234.1 95.1403 236.42 95.7003 238.71 96.1203C241 96.5503 243.26 96.8503 245.48 97.0603C249.91 97.4803 254.15 97.5203 258.11 97.3403C262.06 97.1503 265.73 96.7203 269.04 96.0803C272.34 95.4403 275.29 94.6303 277.78 93.6503C280.27 92.6803 282.31 91.5703 283.77 90.3703C284.49 89.7703 285.09 89.1803 285.51 88.5903C285.63 88.4503 285.71 88.3003 285.8 88.1603C285.89 88.0203 285.98 87.8903 286.04 87.7503C286.11 87.6103 286.17 87.4803 286.23 87.3603C286.28 87.2303 286.32 87.1103 286.36 86.9903C286.45 86.7603 286.49 86.5403 286.53 86.3603C286.55 86.2703 286.57 86.1803 286.58 86.1103C286.59 86.0303 286.59 85.9603 286.6 85.9003C286.61 85.6203 286.62 85.4903 286.62 85.4903C286.62 85.4903 286.62 85.6203 286.6 85.8703C286.6 85.9303 286.59 86.0103 286.59 86.0803C286.58 86.1603 286.56 86.2403 286.54 86.3403C286.5 86.5203 286.47 86.7403 286.38 86.9703C286.34 87.0903 286.3 87.2103 286.25 87.3403C286.19 87.4703 286.13 87.6003 286.06 87.7303C286 87.8703 285.91 88.0103 285.82 88.1503C285.73 88.2903 285.65 88.4503 285.53 88.5903C285.11 89.1903 284.52 89.7903 283.79 90.3903C282.34 91.6003 280.29 92.7203 277.8 93.7003C275.31 94.6903 272.36 95.5103 269.05 96.1503C265.74 96.8003 262.07 97.2303 258.11 97.4303C254.15 97.6203 249.91 97.5803 245.47 97.1703C243.25 96.9603 240.98 96.6603 238.69 96.2303C236.4 95.8103 234.07 95.2503 231.76 94.5003C229.46 93.7403 227.15 92.8103 225.02 91.4603C223.97 90.7803 222.95 90.0003 222.13 89.0103C221.72 88.5203 221.37 87.9703 221.11 87.3803C220.87 86.7803 220.72 86.1403 220.71 85.4803C220.72 84.8303 220.87 84.1803 221.12 83.5803C221.38 82.9903 221.74 82.4403 222.14 81.9503C222.96 80.9603 223.98 80.1803 225.03 79.5003C227.15 78.1503 229.46 77.2103 231.76 76.4603C234.07 75.7103 236.39 75.1503 238.69 74.7303C240.98 74.3003 243.25 74.0003 245.47 73.7903C249.91 73.3803 254.15 73.3303 258.11 73.5303C262.07 73.7303 265.74 74.1703 269.05 74.8103C272.36 75.4603 275.31 76.2803 277.8 77.2603C280.29 78.2403 282.34 79.3603 283.79 80.5703C284.52 81.1703 285.11 81.7703 285.53 82.3703C285.65 82.5103 285.73 82.6703 285.82 82.8103C285.91 82.9503 286 83.0903 286.06 83.2303C286.13 83.3703 286.19 83.5003 286.25 83.6203C286.3 83.7503 286.34 83.8803 286.38 83.9903C286.47 84.2203 286.51 84.4403 286.54 84.6203C286.56 84.7103 286.58 84.8003 286.59 84.8803C286.59 84.9603 286.6 85.0303 286.6 85.0903C286.62 85.3603 286.62 85.4903 286.62 85.4903Z" fill="#267FFF"/>
<path d="M274.6 58.2103C274.6 58.2103 274.49 58.1403 274.28 58.0003C274.23 57.9603 274.17 57.9303 274.1 57.8803C274.03 57.8403 273.95 57.8103 273.87 57.7703C273.7 57.6903 273.51 57.5903 273.27 57.5203C273.15 57.4803 273.03 57.4403 272.9 57.4003C272.76 57.3703 272.62 57.3403 272.47 57.3103C272.32 57.2703 272.16 57.2603 272 57.2503C271.83 57.2403 271.66 57.2103 271.48 57.2103C270.76 57.1803 269.92 57.2903 269.01 57.4903C267.17 57.9003 265.04 58.8403 262.75 60.2103C260.45 61.5803 258.01 63.4103 255.48 65.6303C252.95 67.8503 250.36 70.4903 247.79 73.4903C245.22 76.5003 242.66 79.8803 240.27 83.6403C239.08 85.5203 237.93 87.4903 236.87 89.5703C235.8 91.6403 234.83 93.8103 234.01 96.0903C233.2 98.3703 232.53 100.76 232.3 103.24C232.2 104.48 232.19 105.75 232.47 106.98C232.61 107.59 232.82 108.19 233.12 108.75C233.43 109.3 233.84 109.79 234.33 110.19C234.84 110.57 235.42 110.84 236.02 111.01C236.63 111.16 237.26 111.22 237.89 111.2C239.15 111.16 240.38 110.84 241.55 110.43C243.9 109.59 246.05 108.34 248.05 106.99C250.05 105.63 251.91 104.14 253.65 102.59C255.39 101.04 257.02 99.4403 258.54 97.8203C261.58 94.5703 264.22 91.2503 266.49 88.0103C268.76 84.7703 270.67 81.6003 272.19 78.6003C273.71 75.6003 274.87 72.7703 275.63 70.2103C276.38 67.6503 276.76 65.3503 276.71 63.4703C276.68 62.5303 276.58 61.7003 276.37 61.0003C276.33 60.8203 276.26 60.6603 276.21 60.5103C276.16 60.3503 276.1 60.2003 276.03 60.0703C275.96 59.9303 275.9 59.8003 275.84 59.6803C275.77 59.5603 275.7 59.4503 275.63 59.3503C275.51 59.1303 275.36 58.9703 275.24 58.8303C275.18 58.7603 275.13 58.6903 275.07 58.6303C275.01 58.5803 274.96 58.5303 274.91 58.4903C274.69 58.3003 274.6 58.2103 274.6 58.2103C274.6 58.2103 274.7 58.2903 274.89 58.4603C274.94 58.5003 274.99 58.5503 275.05 58.6003C275.11 58.6603 275.16 58.7203 275.22 58.7903C275.34 58.9303 275.49 59.0903 275.62 59.3103C275.69 59.4103 275.76 59.5203 275.83 59.6403C275.89 59.7603 275.96 59.9003 276.02 60.0303C276.09 60.1603 276.15 60.3203 276.21 60.4703C276.26 60.6303 276.34 60.7903 276.38 60.9703C276.59 61.6703 276.7 62.5003 276.74 63.4503C276.81 65.3403 276.43 67.6503 275.69 70.2203C274.94 72.7903 273.78 75.6303 272.27 78.6403C270.75 81.6503 268.85 84.8203 266.58 88.0703C264.31 91.3203 261.67 94.6503 258.63 97.9003C257.11 99.5303 255.48 101.13 253.73 102.68C251.99 104.23 250.12 105.73 248.12 107.09C246.11 108.45 243.96 109.7 241.59 110.55C240.41 110.96 239.16 111.29 237.88 111.33C237.24 111.35 236.59 111.29 235.96 111.14C235.34 110.97 234.74 110.69 234.21 110.3C233.7 109.89 233.28 109.38 232.96 108.82C232.65 108.25 232.44 107.64 232.3 107.01C232.02 105.76 232.03 104.47 232.13 103.23C232.36 100.72 233.04 98.3303 233.85 96.0403C234.67 93.7603 235.65 91.5803 236.73 89.5103C237.8 87.4303 238.95 85.4603 240.14 83.5803C242.53 79.8203 245.1 76.4403 247.68 73.4303C250.26 70.4203 252.86 67.7903 255.4 65.5703C257.94 63.3503 260.39 61.5203 262.7 60.1603C265 58.7903 267.14 57.8603 268.99 57.4503C269.91 57.2503 270.75 57.1403 271.48 57.1803C271.66 57.1703 271.84 57.2103 272 57.2203C272.17 57.2303 272.33 57.2503 272.48 57.2903C272.63 57.3203 272.77 57.3503 272.91 57.3803C273.04 57.4203 273.17 57.4703 273.28 57.5003C273.52 57.5703 273.71 57.6703 273.88 57.7603C273.96 57.8003 274.04 57.8403 274.11 57.8803C274.18 57.9203 274.23 57.9603 274.29 58.0003C274.49 58.1403 274.6 58.2103 274.6 58.2103Z" fill="#267FFF"/>
<path d="M220.42 99.0802C220.9 99.5602 220.9 100.33 220.42 100.81C219.94 101.29 219.17 101.29 218.69 100.81C218.21 100.33 218.21 99.5602 218.69 99.0802C219.17 98.6002 219.94 98.6002 220.42 99.0802Z" fill="#267FFF"/>
<path d="M289.41 61.1902C289.41 61.8702 288.86 62.4102 288.19 62.4102C287.51 62.4102 286.97 61.8602 286.97 61.1902C286.97 60.5102 287.52 59.9702 288.19 59.9702C288.86 59.9702 289.41 60.5102 289.41 61.1902Z" fill="#267FFF"/>
<path d="M228.14 103.1C228.14 103.27 228 103.41 227.83 103.41C227.66 103.41 227.52 103.27 227.52 103.1C227.52 102.93 227.66 102.79 227.83 102.79C228 102.79 228.14 102.93 228.14 103.1Z" fill="#267FFF"/>
<path d="M234.77 68.8403C234.77 69.0103 234.63 69.1503 234.46 69.1503C234.29 69.1503 234.15 69.0103 234.15 68.8403C234.15 68.6703 234.29 68.5303 234.46 68.5303C234.63 68.5203 234.77 68.6603 234.77 68.8403Z" fill="#267FFF"/>
<path d="M283.26 85.4902C283.26 85.6602 283.12 85.8002 282.95 85.8002C282.78 85.8002 282.64 85.6602 282.64 85.4902C282.64 85.3202 282.78 85.1802 282.95 85.1802C283.12 85.1802 283.26 85.3202 283.26 85.4902Z" fill="#267FFF"/>
<path d="M287.58 71.0002C287.58 71.1702 287.44 71.3102 287.27 71.3102C287.1 71.3102 286.96 71.1702 286.96 71.0002C286.96 70.8302 287.1 70.6902 287.27 70.6902C287.44 70.6902 287.58 70.8302 287.58 71.0002Z" fill="#267FFF"/>
<path d="M266.64 92.3204H262.8V71.4104C262.8 66.4904 258.79 62.4804 253.87 62.4804C248.95 62.4804 244.94 66.4904 244.94 71.4104V92.3304H241.1V71.4104C241.1 64.3704 246.83 58.6404 253.87 58.6404C260.91 58.6404 266.64 64.3704 266.64 71.4104V92.3204Z" fill="#267FFF"/>
<path d="M268.83 105.1H238.91C237.67 105.1 236.66 104.09 236.66 102.85V85.2703C236.66 84.0303 237.67 83.0203 238.91 83.0203H268.83C270.07 83.0203 271.08 84.0303 271.08 85.2703V102.85C271.08 104.09 270.07 105.1 268.83 105.1Z" fill="#267FFF"/>
<g opacity="0.3">
<g opacity="0.3">
<path opacity="0.3" d="M256.75 91.1803C256.75 89.5903 255.46 88.3003 253.87 88.3003C252.28 88.3003 250.99 89.5903 250.99 91.1803C250.99 92.4903 251.88 93.5903 253.08 93.9303V98.2303H254.65V93.9303C255.86 93.5903 256.75 92.5003 256.75 91.1803Z" fill="black"/>
</g>
</g>
<path d="M238.49 103.01C238.41 103.01 238.35 99.3303 238.35 94.7903C238.35 90.2503 238.41 86.5603 238.49 86.5603C238.57 86.5603 238.63 90.2403 238.63 94.7903C238.64 99.3203 238.57 103.01 238.49 103.01Z" fill="#FAFAFA"/>
<path d="M251.62 94.8705C251.61 94.8805 251.49 94.8305 251.28 94.6805C251.08 94.5305 250.81 94.2904 250.54 93.9204C250 93.2204 249.51 91.9404 249.83 90.5604C250.16 89.1804 251.18 88.2605 251.97 87.8705C252.37 87.6705 252.72 87.5704 252.97 87.5304C253.22 87.4904 253.36 87.4905 253.36 87.5105C253.37 87.5605 252.81 87.6205 252.07 88.0505C251.34 88.4605 250.42 89.3504 250.11 90.6304C249.81 91.9004 250.24 93.1104 250.71 93.8104C251.18 94.5304 251.65 94.8305 251.62 94.8705Z" fill="#FAFAFA"/>
<path d="M304.97 143.81H198.99C193.84 143.81 189.67 139.64 189.67 134.49V133.34C189.67 128.19 193.84 124.02 198.99 124.02H304.97C310.12 124.02 314.29 128.19 314.29 133.34V134.49C314.29 139.64 310.12 143.81 304.97 143.81Z" fill="#F5F5F5"/>
<path d="M305.89 170.93H199.91C194.76 170.93 190.59 166.76 190.59 161.61V160.46C190.59 155.31 194.76 151.14 199.91 151.14H305.89C311.04 151.14 315.21 155.31 315.21 160.46V161.61C315.21 166.76 311.03 170.93 305.89 170.93Z" fill="#F5F5F5"/>
<path d="M209.37 133.76V130.89H210.55V133.71C210.55 134.68 210.97 135.08 211.69 135.08C212.41 135.08 212.83 134.68 212.83 133.71V130.89H214V133.76C214 135.27 213.14 136.1 211.68 136.1C210.23 136.1 209.37 135.27 209.37 133.76Z" fill="#EBEBEB"/>
<path d="M214.71 135.65L215.09 134.83C215.44 135.06 215.97 135.21 216.46 135.21C216.99 135.21 217.18 135.07 217.18 134.85C217.18 134.21 214.8 134.86 214.8 133.29C214.8 132.54 215.47 132.02 216.62 132.02C217.16 132.02 217.76 132.14 218.13 132.36L217.75 133.17C217.36 132.95 216.97 132.88 216.62 132.88C216.11 132.88 215.89 133.04 215.89 133.25C215.89 133.92 218.27 133.27 218.27 134.82C218.27 135.55 217.59 136.07 216.41 136.07C215.75 136.07 215.08 135.89 214.71 135.65Z" fill="#EBEBEB"/>
<path d="M222.81 134.37H219.84C219.95 134.86 220.37 135.16 220.97 135.16C221.39 135.16 221.69 135.04 221.96 134.78L222.57 135.44C222.2 135.86 221.66 136.08 220.95 136.08C219.59 136.08 218.71 135.22 218.71 134.06C218.71 132.88 219.61 132.04 220.81 132.04C221.96 132.04 222.86 132.81 222.86 134.08C222.83 134.15 222.81 134.27 222.81 134.37ZM219.82 133.7H221.76C221.68 133.2 221.31 132.88 220.8 132.88C220.27 132.88 219.9 133.2 219.82 133.7Z" fill="#EBEBEB"/>
<path d="M226.03 132.02V133.07C225.93 133.06 225.86 133.06 225.77 133.06C225.14 133.06 224.72 133.4 224.72 134.16V136.02H223.58V132.09H224.67V132.61C224.95 132.22 225.42 132.02 226.03 132.02Z" fill="#EBEBEB"/>
<path d="M230.73 133.76V136.01H229.59V133.93C229.59 133.29 229.3 133 228.79 133C228.24 133 227.85 133.34 227.85 134.06V136H226.71V132.07H227.8V132.53C228.11 132.19 228.57 132.01 229.1 132.01C230.03 132.02 230.73 132.56 230.73 133.76Z" fill="#EBEBEB"/>
<path d="M235.24 133.77V136.01H234.17V135.52C233.96 135.88 233.55 136.07 232.97 136.07C232.05 136.07 231.5 135.56 231.5 134.88C231.5 134.19 231.99 133.7 233.19 133.7H234.1C234.1 133.21 233.81 132.93 233.19 132.93C232.77 132.93 232.34 133.07 232.06 133.3L231.65 132.5C232.08 132.19 232.72 132.02 233.35 132.02C234.54 132.02 235.24 132.58 235.24 133.77ZM234.1 134.77V134.37H233.32C232.79 134.37 232.62 134.57 232.62 134.83C232.62 135.12 232.86 135.31 233.26 135.31C233.64 135.3 233.97 135.13 234.1 134.77Z" fill="#EBEBEB"/>
<path d="M242.91 133.76V136.01H241.77V133.93C241.77 133.29 241.48 133 241.02 133C240.51 133 240.15 133.33 240.15 134.03V136H239.01V133.92C239.01 133.28 238.74 132.99 238.26 132.99C237.76 132.99 237.4 133.32 237.4 134.02V135.99H236.26V132.06H237.35V132.51C237.64 132.17 238.08 132 238.59 132C239.14 132 239.61 132.21 239.88 132.64C240.19 132.24 240.71 132 241.3 132C242.24 132.02 242.91 132.56 242.91 133.76Z" fill="#EBEBEB"/>
<path d="M247.81 134.37H244.84C244.95 134.86 245.37 135.16 245.97 135.16C246.39 135.16 246.69 135.04 246.96 134.78L247.57 135.44C247.2 135.86 246.66 136.08 245.95 136.08C244.59 136.08 243.71 135.22 243.71 134.06C243.71 132.88 244.61 132.04 245.81 132.04C246.96 132.04 247.86 132.81 247.86 134.08C247.83 134.15 247.82 134.27 247.81 134.37ZM244.82 133.7H246.76C246.68 133.2 246.31 132.88 245.8 132.88C245.27 132.88 244.9 133.2 244.82 133.7Z" fill="#EBEBEB"/>
<path d="M255.35 134.01C255.35 135.32 254.75 136.06 253.85 136.06C253.35 136.06 253 135.84 252.85 135.42C252.59 135.83 252.18 136.06 251.6 136.06C250.66 136.06 249.91 135.31 249.91 134.21C249.91 133.11 250.65 132.37 251.6 132.37C252.08 132.37 252.46 132.54 252.73 132.85V132.42H253.72V134.79C253.72 135.14 253.87 135.26 254.07 135.26C254.41 135.26 254.61 134.87 254.61 134.02C254.61 132.54 253.51 131.51 251.89 131.51C250.26 131.51 249.17 132.62 249.17 134.15C249.17 135.71 250.24 136.81 251.86 136.81C252.32 136.81 252.84 136.71 253.3 136.49L253.53 137.16C253.08 137.39 252.43 137.51 251.86 137.51C249.75 137.51 248.35 136.08 248.35 134.15C248.35 132.24 249.76 130.82 251.89 130.82C253.94 130.82 255.35 132.17 255.35 134.01ZM252.74 134.21C252.74 133.57 252.35 133.22 251.83 133.22C251.3 133.22 250.92 133.59 250.92 134.21C250.92 134.84 251.29 135.22 251.83 135.22C252.35 135.22 252.74 134.86 252.74 134.21Z" fill="#EBEBEB"/>
<path d="M262.8 133.76V136.01H261.66V133.93C261.66 133.29 261.37 133 260.91 133C260.4 133 260.04 133.33 260.04 134.03V136H258.9V133.92C258.9 133.28 258.63 132.99 258.15 132.99C257.65 132.99 257.29 133.32 257.29 134.02V135.99H256.15V132.06H257.24V132.51C257.53 132.17 257.97 132 258.48 132C259.03 132 259.5 132.21 259.77 132.64C260.08 132.24 260.6 132 261.19 132C262.13 132.02 262.8 132.56 262.8 133.76Z" fill="#EBEBEB"/>
<path d="M267.3 133.77V136.01H266.23V135.52C266.02 135.88 265.61 136.07 265.03 136.07C264.11 136.07 263.56 135.56 263.56 134.88C263.56 134.19 264.05 133.7 265.25 133.7H266.16C266.16 133.21 265.87 132.93 265.25 132.93C264.83 132.93 264.4 133.07 264.12 133.3L263.71 132.5C264.14 132.19 264.78 132.02 265.41 132.02C266.61 132.02 267.3 132.58 267.3 133.77ZM266.16 134.77V134.37H265.38C264.85 134.37 264.68 134.57 264.68 134.83C264.68 135.12 264.92 135.31 265.32 135.31C265.7 135.3 266.03 135.13 266.16 134.77Z" fill="#EBEBEB"/>
<path d="M268.2 130.9C268.2 130.54 268.49 130.26 268.91 130.26C269.33 130.26 269.62 130.52 269.62 130.87C269.62 131.25 269.33 131.53 268.91 131.53C268.49 131.53 268.2 131.25 268.2 130.9ZM268.33 132.08H269.47V136.01H268.33V132.08Z" fill="#EBEBEB"/>
<path d="M270.53 130.59H271.67V136.01H270.53V130.59Z" fill="#EBEBEB"/>
<path d="M272.46 135.35C272.46 134.93 272.77 134.65 273.17 134.65C273.57 134.65 273.88 134.93 273.88 135.35C273.88 135.77 273.57 136.07 273.17 136.07C272.77 136.07 272.46 135.77 272.46 135.35Z" fill="#EBEBEB"/>
<path d="M274.31 134.04C274.31 132.86 275.22 132.02 276.5 132.02C277.33 132.02 277.98 132.38 278.26 133.02L277.38 133.5C277.17 133.13 276.85 132.96 276.5 132.96C275.92 132.96 275.47 133.36 275.47 134.05C275.47 134.74 275.92 135.14 276.5 135.14C276.86 135.14 277.17 134.98 277.38 134.6L278.26 135.08C277.97 135.71 277.32 136.07 276.5 136.07C275.22 136.07 274.31 135.23 274.31 134.04Z" fill="#EBEBEB"/>
<path d="M278.57 134.04C278.57 132.86 279.48 132.02 280.73 132.02C281.98 132.02 282.89 132.86 282.89 134.04C282.89 135.22 281.98 136.06 280.73 136.06C279.48 136.06 278.57 135.23 278.57 134.04ZM281.74 134.04C281.74 133.36 281.31 132.95 280.74 132.95C280.17 132.95 279.73 133.36 279.73 134.04C279.73 134.72 280.17 135.13 280.74 135.13C281.31 135.13 281.74 134.73 281.74 134.04Z" fill="#EBEBEB"/>
<path d="M290.3 133.76V136.01H289.16V133.93C289.16 133.29 288.87 133 288.41 133C287.9 133 287.54 133.33 287.54 134.03V136H286.4V133.92C286.4 133.28 286.13 132.99 285.65 132.99C285.15 132.99 284.79 133.32 284.79 134.02V135.99H283.65V132.06H284.74V132.51C285.03 132.17 285.47 132 285.98 132C286.53 132 287 132.21 287.27 132.64C287.58 132.24 288.1 132 288.69 132C289.63 132.02 290.3 132.56 290.3 133.76Z" fill="#EBEBEB"/>
<path d="M224.64 161.15L226.49 162.15L225.66 163.54L223.79 162.44L223.82 164.5H222.22L222.24 162.43L220.37 163.55L219.55 162.16L221.4 161.16L219.55 160.14L220.37 158.75L222.24 159.87L222.22 157.8H223.82L223.79 159.87L225.66 158.75L226.49 160.14L224.64 161.15Z" fill="#EBEBEB"/>
<path d="M232.35 161.15L234.2 162.15L233.37 163.54L231.5 162.44L231.53 164.5H229.93L229.95 162.43L228.08 163.55L227.26 162.16L229.11 161.16L227.26 160.14L228.08 158.75L229.95 159.87L229.93 157.8H231.53L231.5 159.87L233.37 158.75L234.2 160.14L232.35 161.15Z" fill="#EBEBEB"/>
<path d="M240.06 161.15L241.91 162.15L241.08 163.54L239.21 162.44L239.24 164.5H237.64L237.66 162.43L235.79 163.55L234.97 162.16L236.82 161.16L234.97 160.14L235.79 158.75L237.66 159.87L237.64 157.8H239.24L239.21 159.87L241.08 158.75L241.91 160.14L240.06 161.15Z" fill="#EBEBEB"/>
<path d="M247.76 161.15L249.61 162.15L248.78 163.54L246.91 162.44L246.94 164.5H245.34L245.36 162.43L243.49 163.55L242.67 162.16L244.52 161.16L242.67 160.14L243.49 158.75L245.36 159.87L245.34 157.8H246.94L246.91 159.87L248.78 158.75L249.61 160.14L247.76 161.15Z" fill="#EBEBEB"/>
<path d="M255.47 161.15L257.32 162.15L256.49 163.54L254.62 162.44L254.65 164.5H253.05L253.07 162.43L251.2 163.55L250.38 162.16L252.23 161.16L250.38 160.14L251.2 158.75L253.07 159.87L253.05 157.8H254.65L254.62 159.87L256.49 158.75L257.32 160.14L255.47 161.15Z" fill="#EBEBEB"/>
<path d="M263.18 161.15L265.03 162.15L264.2 163.54L262.33 162.44L262.36 164.5H260.76L260.78 162.43L258.91 163.55L258.09 162.16L259.94 161.16L258.09 160.14L258.91 158.75L260.78 159.87L260.76 157.8H262.36L262.33 159.87L264.2 158.75L265.03 160.14L263.18 161.15Z" fill="#EBEBEB"/>
<path d="M270.88 161.15L272.73 162.15L271.9 163.54L270.03 162.44L270.06 164.5H268.46L268.48 162.43L266.61 163.55L265.79 162.16L267.64 161.16L265.79 160.14L266.61 158.75L268.48 159.87L268.46 157.8H270.06L270.03 159.87L271.9 158.75L272.73 160.14L270.88 161.15Z" fill="#EBEBEB"/>
<path d="M278.59 161.15L280.44 162.15L279.61 163.54L277.74 162.44L277.77 164.5H276.17L276.19 162.43L274.32 163.55L273.5 162.16L275.35 161.16L273.5 160.14L274.32 158.75L276.19 159.87L276.17 157.8H277.77L277.74 159.87L279.61 158.75L280.44 160.14L278.59 161.15Z" fill="#EBEBEB"/>
<path d="M362.86 306.18H213.84C210.32 306.18 207.46 303.32 207.46 299.8V222.66C207.46 219.14 210.32 216.28 213.84 216.28H362.87C366.39 216.28 369.25 219.14 369.25 222.66V299.8C369.24 303.32 366.39 306.18 362.86 306.18Z" fill="white"/>
<path d="M362.86 306.18C362.86 306.15 363.29 306.19 364.12 306.03C364.92 305.85 366.16 305.43 367.33 304.28C367.9 303.7 368.43 302.94 368.77 302C368.96 301.53 369.05 301.01 369.13 300.47C369.17 299.93 369.16 299.35 369.16 298.75C369.15 296.35 369.15 293.58 369.14 290.47C369.12 278 369.09 259.98 369.06 237.71C369.06 234.93 369.05 232.07 369.05 229.16C369.05 227.7 369.05 226.23 369.05 224.74C369.01 223.25 369.21 221.72 368.6 220.36C368.05 219 366.99 217.83 365.64 217.15C364.97 216.81 364.24 216.6 363.48 216.52C362.74 216.46 361.93 216.5 361.14 216.49C357.98 216.49 354.76 216.49 351.49 216.5C338.39 216.51 324.4 216.52 309.67 216.52C280.22 216.53 247.84 216.53 213.85 216.54C212.83 216.55 211.82 216.8 210.92 217.28C210.04 217.78 209.26 218.48 208.71 219.33C208.17 220.18 207.81 221.16 207.75 222.17C207.7 223.18 207.74 224.26 207.72 225.3C207.72 229.5 207.72 233.67 207.72 237.81C207.72 246.09 207.72 254.24 207.72 262.26C207.72 270.27 207.72 278.15 207.71 285.86C207.71 289.71 207.71 293.53 207.71 297.3C207.72 298.24 207.69 299.2 207.72 300.11C207.76 301.01 208.01 301.9 208.42 302.69C209.26 304.28 210.82 305.44 212.56 305.81C213.42 306.01 214.33 305.93 215.25 305.95C216.16 305.95 217.08 305.95 217.99 305.95C219.81 305.95 221.61 305.95 223.41 305.95C227 305.95 230.54 305.95 234.03 305.96C241.01 305.96 247.78 305.97 254.33 305.97C267.43 305.98 279.63 305.99 290.77 306C313.04 306.04 331.06 306.06 343.53 306.08C349.75 306.1 354.59 306.12 357.87 306.13C359.5 306.14 360.75 306.15 361.6 306.16C362.43 306.16 362.86 306.18 362.86 306.18C362.86 306.18 362.43 306.2 361.59 306.21C360.74 306.22 359.49 306.22 357.86 306.24C354.57 306.25 349.74 306.27 343.52 306.29C331.05 306.31 313.03 306.34 290.76 306.37C279.62 306.38 267.42 306.39 254.32 306.4C247.77 306.4 241 306.41 234.02 306.41C230.53 306.41 226.99 306.41 223.4 306.42C221.61 306.42 219.8 306.42 217.98 306.42C217.07 306.42 216.16 306.42 215.24 306.42C214.34 306.4 213.4 306.49 212.45 306.28C210.58 305.89 208.9 304.63 207.99 302.92C207.54 302.06 207.27 301.11 207.23 300.14C207.2 299.18 207.22 298.26 207.21 297.31C207.21 293.54 207.21 289.72 207.21 285.87C207.21 278.16 207.21 270.29 207.2 262.27C207.2 254.26 207.2 246.1 207.2 237.82C207.2 233.68 207.2 229.51 207.2 225.31C207.21 224.25 207.17 223.23 207.23 222.14C207.3 221.04 207.69 219.98 208.28 219.06C208.87 218.13 209.72 217.38 210.68 216.84C211.65 216.32 212.75 216.04 213.86 216.04C247.85 216.05 280.23 216.05 309.68 216.06C324.41 216.07 338.4 216.08 351.5 216.08C354.77 216.08 357.99 216.08 361.15 216.09C361.95 216.1 362.71 216.06 363.53 216.12C364.33 216.2 365.12 216.43 365.83 216.8C367.26 217.52 368.39 218.77 368.97 220.22C369.27 220.95 369.42 221.72 369.44 222.5C369.44 223.25 369.44 224 369.45 224.75C369.45 226.24 369.45 227.71 369.45 229.17C369.45 232.08 369.44 234.94 369.44 237.72C369.4 259.99 369.38 278.01 369.36 290.48C369.35 293.59 369.34 296.36 369.34 298.76C369.34 299.36 369.34 299.94 369.3 300.5C369.22 301.05 369.12 301.58 368.92 302.06C368.56 303.02 368.02 303.79 367.43 304.37C366.23 305.53 364.97 305.94 364.16 306.1C363.74 306.17 363.43 306.2 363.21 306.2C362.97 306.18 362.86 306.18 362.86 306.18Z" fill="#263238"/>
<path d="M263.83 248.05V249.17H259.15V243.12H263.72V244.24H260.54V245.55H263.35V246.64H260.54V248.04H263.83V248.05Z" fill="#EBEBEB"/>
<path d="M270.49 243.12V249.17H269.34L266.33 245.5V249.17H264.95V243.12H266.11L269.12 246.79V243.12H270.49Z" fill="#EBEBEB"/>
<path d="M273.17 244.26H271.24V243.12H276.51V244.26H274.58V249.17H273.18V244.26H273.17Z" fill="#EBEBEB"/>
<path d="M281.94 248.05V249.17H277.26V243.12H281.83V244.24H278.65V245.55H281.46V246.64H278.65V248.04H281.94V248.05Z" fill="#EBEBEB"/>
<path d="M286.91 249.17L285.74 247.49H285.67H284.45V249.17H283.05V243.12H285.67C287.28 243.12 288.3 243.96 288.3 245.31C288.3 246.22 287.84 246.88 287.06 247.22L288.42 249.16H286.91V249.17ZM285.6 244.26H284.46V246.37H285.6C286.46 246.37 286.89 245.97 286.89 245.32C286.88 244.65 286.45 244.26 285.6 244.26Z" fill="#EBEBEB"/>
<path d="M291.47 246.15C291.47 244.33 292.87 243.02 294.75 243.02C295.79 243.02 296.67 243.4 297.24 244.09L296.34 244.92C295.93 244.45 295.42 244.21 294.82 244.21C293.69 244.21 292.89 245 292.89 246.14C292.89 247.28 293.69 248.07 294.82 248.07C295.42 248.07 295.93 247.83 296.34 247.35L297.24 248.18C296.67 248.88 295.8 249.26 294.74 249.26C292.87 249.27 291.47 247.97 291.47 246.15Z" fill="#EBEBEB"/>
<path d="M297.67 246.15C297.67 244.35 299.07 243.02 300.98 243.02C302.88 243.02 304.29 244.34 304.29 246.15C304.29 247.95 302.88 249.28 300.98 249.28C299.07 249.27 297.67 247.94 297.67 246.15ZM302.87 246.15C302.87 245 302.06 244.22 300.98 244.22C299.9 244.22 299.09 245.01 299.09 246.15C299.09 247.3 299.9 248.08 300.98 248.08C302.06 248.08 302.87 247.29 302.87 246.15Z" fill="#EBEBEB"/>
<path d="M305.35 243.12H308.1C310.08 243.12 311.43 244.31 311.43 246.14C311.43 247.97 310.07 249.16 308.1 249.16H305.35V243.12ZM308.02 248.02C309.22 248.02 310.01 247.3 310.01 246.15C310.01 244.99 309.22 244.28 308.02 244.28H306.74V248.03H308.02V248.02Z" fill="#EBEBEB"/>
<path d="M317.16 248.05V249.17H312.48V243.12H317.05V244.24H313.87V245.55H316.68V246.64H313.87V248.04H317.16V248.05Z" fill="#EBEBEB"/>
<path d="M240.89 289.59H226.2C224.02 289.59 222.25 287.82 222.25 285.64V262.77C222.25 260.59 224.02 258.82 226.2 258.82H240.88C243.06 258.82 244.83 260.59 244.83 262.77V285.64C244.84 287.82 243.07 289.59 240.89 289.59Z" fill="#EBEBEB"/>
<path d="M269.09 289.59H254.41C252.23 289.59 250.46 287.82 250.46 285.64V262.77C250.46 260.59 252.23 258.82 254.41 258.82H269.09C271.27 258.82 273.04 260.59 273.04 262.77V285.64C273.05 287.82 271.28 289.59 269.09 289.59Z" fill="#EBEBEB"/>
<path d="M297.3 289.59H282.62C280.44 289.59 278.67 287.82 278.67 285.64V262.77C278.67 260.59 280.44 258.82 282.62 258.82H297.3C299.48 258.82 301.25 260.59 301.25 262.77V285.64C301.25 287.82 299.48 289.59 297.3 289.59Z" fill="#EBEBEB"/>
<path d="M325.51 289.59H310.83C308.65 289.59 306.88 287.82 306.88 285.64V262.77C306.88 260.59 308.65 258.82 310.83 258.82H325.51C327.69 258.82 329.46 260.59 329.46 262.77V285.64C329.46 287.82 327.69 289.59 325.51 289.59Z" fill="#EBEBEB"/>
<path d="M353.72 289.59H339.04C336.86 289.59 335.09 287.82 335.09 285.64V262.77C335.09 260.59 336.86 258.82 339.04 258.82H353.72C355.9 258.82 357.67 260.59 357.67 262.77V285.64C357.67 287.82 355.9 289.59 353.72 289.59Z" fill="#EBEBEB"/>
<path d="M217.73 227.7C219.083 227.7 220.18 226.603 220.18 225.25C220.18 223.897 219.083 222.8 217.73 222.8C216.377 222.8 215.28 223.897 215.28 225.25C215.28 226.603 216.377 227.7 217.73 227.7Z" fill="#263238"/>
<path d="M227.24 225.25C227.24 226.6 226.14 227.7 224.79 227.7C223.44 227.7 222.34 226.6 222.34 225.25C222.34 223.9 223.44 222.8 224.79 222.8C226.14 222.8 227.24 223.9 227.24 225.25Z" fill="#263238"/>
<path d="M231.72 227.7C233.073 227.7 234.17 226.603 234.17 225.25C234.17 223.897 233.073 222.8 231.72 222.8C230.367 222.8 229.27 223.897 229.27 225.25C229.27 226.603 230.367 227.7 231.72 227.7Z" fill="#263238"/>
<path d="M369.48 232.15C369.48 232.29 333.26 232.41 288.59 232.41C243.9 232.41 207.69 232.29 207.69 232.15C207.69 232.01 243.9 231.89 288.59 231.89C333.26 231.89 369.48 232.01 369.48 232.15Z" fill="#263238"/>
<path d="M187.77 105.91H109.87C107.63 105.91 105.82 107.72 105.82 109.96V145.45C105.82 147.69 107.63 149.5 109.87 149.5H142.55L149.49 158.4L155.27 149.5H187.76C190 149.5 191.81 147.69 191.81 145.45V109.96C191.82 107.72 190 105.91 187.77 105.91Z" fill="white"/>
<path d="M187.77 105.91C187.77 105.91 187.9 105.9 188.16 105.91C188.41 105.94 188.8 105.97 189.27 106.16C189.74 106.34 190.31 106.65 190.81 107.2C191.32 107.74 191.76 108.54 191.88 109.52C191.95 113.39 191.94 119 191.97 126.12C191.98 129.68 191.99 133.61 192 137.87C192 140 192.01 142.22 192.01 144.51C192 145.08 192.05 145.67 191.93 146.28C191.81 146.88 191.56 147.46 191.19 147.96C190.46 148.97 189.25 149.65 187.96 149.69C178.16 149.7 167.17 149.72 155.28 149.74L155.48 149.63C153.66 152.43 151.7 155.45 149.7 158.53L149.51 158.82L149.3 158.55C147.11 155.74 144.75 152.72 142.35 149.65L142.55 149.75C133.55 149.75 124.13 149.75 114.47 149.76C113.34 149.76 112.22 149.76 111.1 149.76C110.53 149.75 110 149.78 109.39 149.73C108.8 149.66 108.22 149.47 107.71 149.17C106.68 148.58 105.93 147.55 105.67 146.39C105.53 145.81 105.57 145.22 105.56 144.68V143.03C105.56 138.64 105.56 134.31 105.56 130.05C105.56 125.8 105.56 121.62 105.57 117.52C105.57 115.47 105.57 113.45 105.57 111.45V109.95C105.57 109.42 105.67 108.9 105.86 108.41C106.24 107.43 106.98 106.61 107.9 106.14C108.36 105.9 108.86 105.75 109.37 105.69C109.89 105.64 110.36 105.67 110.85 105.66C111.81 105.66 112.77 105.66 113.73 105.66C115.63 105.66 117.51 105.66 119.37 105.67C123.07 105.67 126.67 105.68 130.15 105.68C137.1 105.69 143.58 105.7 149.49 105.71C161.3 105.74 170.87 105.77 177.5 105.79C180.79 105.81 183.36 105.83 185.11 105.84C185.97 105.85 186.63 105.86 187.09 105.87C187.54 105.89 187.77 105.91 187.77 105.91C187.77 105.91 187.54 105.93 187.1 105.94C186.64 105.95 185.98 105.95 185.12 105.97C183.36 105.98 180.8 106 177.51 106.02C170.88 106.04 161.31 106.07 149.5 106.1C143.59 106.11 137.11 106.12 130.16 106.13C126.68 106.13 123.09 106.14 119.38 106.14C117.53 106.14 115.65 106.14 113.74 106.15C112.79 106.15 111.83 106.15 110.86 106.15C110.38 106.16 109.88 106.14 109.44 106.18C108.98 106.23 108.54 106.37 108.13 106.58C107.31 107 106.65 107.73 106.32 108.6C106.15 109.03 106.07 109.5 106.06 109.97V111.47C106.06 113.47 106.06 115.5 106.06 117.54C106.06 121.63 106.06 125.81 106.07 130.07C106.07 134.32 106.07 138.65 106.07 143.05V144.7C106.08 145.26 106.04 145.79 106.17 146.29C106.39 147.3 107.06 148.21 107.96 148.73C108.41 148.99 108.91 149.16 109.43 149.22C109.93 149.27 110.53 149.24 111.08 149.25C112.2 149.25 113.33 149.25 114.45 149.25C124.11 149.25 133.53 149.25 142.53 149.26H142.65L142.73 149.36C145.12 152.43 147.48 155.45 149.67 158.26L149.27 158.28C151.27 155.2 153.24 152.18 155.06 149.38L155.13 149.27H155.26C167.14 149.28 178.13 149.29 187.92 149.3C189.09 149.26 190.19 148.65 190.85 147.74C191.18 147.29 191.42 146.76 191.53 146.22C191.64 145.68 191.6 145.1 191.61 144.53C191.61 142.24 191.62 140.02 191.62 137.89C191.63 133.63 191.64 129.7 191.65 126.14C191.67 119.04 191.68 113.42 191.69 109.55C191.59 108.61 191.18 107.83 190.69 107.3C190.21 106.75 189.66 106.44 189.21 106.25C188.31 105.86 187.76 105.95 187.77 105.91Z" fill="#263238"/>
<path d="M134.23 115.92V117.23H133.37V115.91L131.93 113.53H132.84L133.83 115.18L134.82 113.53H135.66L134.23 115.92Z" fill="#EBEBEB"/>
<path d="M135.64 115.38C135.64 114.28 136.5 113.46 137.67 113.46C138.84 113.46 139.7 114.27 139.7 115.38C139.7 116.49 138.84 117.3 137.67 117.3C136.5 117.3 135.64 116.49 135.64 115.38ZM138.83 115.38C138.83 114.68 138.33 114.19 137.67 114.19C137.01 114.19 136.51 114.67 136.51 115.38C136.51 116.08 137.01 116.57 137.67 116.57C138.33 116.57 138.83 116.09 138.83 115.38Z" fill="#EBEBEB"/>
<path d="M140.32 115.61V113.53H141.18V115.57C141.18 116.27 141.49 116.57 142.01 116.57C142.53 116.57 142.84 116.28 142.84 115.57V113.53H143.69V115.61C143.69 116.7 143.06 117.3 142.01 117.3C140.94 117.3 140.32 116.7 140.32 115.61Z" fill="#EBEBEB"/>
<path d="M146.89 117.24L146.18 116.21H146.14H145.39V117.24H144.53V113.53H146.13C147.12 113.53 147.74 114.04 147.74 114.87C147.74 115.43 147.46 115.83 146.98 116.04L147.81 117.23H146.89V117.24ZM146.08 114.23H145.38V115.52H146.08C146.6 115.52 146.87 115.28 146.87 114.87C146.87 114.47 146.61 114.23 146.08 114.23Z" fill="#EBEBEB"/>
<path d="M149.69 115.38C149.69 114.26 150.55 113.46 151.7 113.46C152.34 113.46 152.88 113.69 153.22 114.12L152.67 114.63C152.42 114.34 152.11 114.2 151.74 114.2C151.05 114.2 150.55 114.69 150.55 115.39C150.55 116.09 151.04 116.58 151.74 116.58C152.11 116.58 152.42 116.43 152.67 116.14L153.22 116.65C152.87 117.08 152.34 117.31 151.69 117.31C150.55 117.3 149.69 116.5 149.69 115.38Z" fill="#EBEBEB"/>
<path d="M153.5 115.38C153.5 114.28 154.36 113.46 155.53 113.46C156.7 113.46 157.56 114.27 157.56 115.38C157.56 116.49 156.7 117.3 155.53 117.3C154.35 117.3 153.5 116.49 153.5 115.38ZM156.68 115.38C156.68 114.68 156.18 114.19 155.52 114.19C154.86 114.19 154.36 114.67 154.36 115.38C154.36 116.08 154.86 116.57 155.52 116.57C156.19 116.57 156.68 116.09 156.68 115.38Z" fill="#EBEBEB"/>
<path d="M158.2 113.53H159.88C161.09 113.53 161.92 114.26 161.92 115.38C161.92 116.5 161.09 117.23 159.88 117.23H158.2V113.53ZM159.84 116.53C160.58 116.53 161.06 116.09 161.06 115.38C161.06 114.67 160.58 114.23 159.84 114.23H159.06V116.53H159.84Z" fill="#EBEBEB"/>
<path d="M165.45 116.55V117.24H162.58V113.53H165.38V114.22H163.43V115.02H165.15V115.69H163.43V116.55H165.45Z" fill="#EBEBEB"/>
<path d="M180.17 141.47H117.47C115.51 141.47 113.92 139.88 113.92 137.92V124.68C113.92 122.72 115.51 121.13 117.47 121.13H180.17C182.13 121.13 183.72 122.72 183.72 124.68V137.92C183.71 139.88 182.12 141.47 180.17 141.47Z" fill="#F5F5F5"/>
<path d="M127.09 130.35L128.94 131.35L128.11 132.74L126.24 131.64L126.27 133.7H124.67L124.69 131.63L122.82 132.75L122 131.36L123.85 130.36L122 129.34L122.82 127.95L124.69 129.07L124.67 127H126.27L126.24 129.07L128.11 127.95L128.94 129.34L127.09 130.35Z" fill="white"/>
<path d="M144.09 130.35L145.94 131.35L145.11 132.74L143.24 131.64L143.27 133.7H141.67L141.69 131.63L139.82 132.75L139 131.36L140.85 130.36L139 129.34L139.82 127.95L141.69 129.07L141.67 127H143.27L143.24 129.07L145.11 127.95L145.94 129.34L144.09 130.35Z" fill="white"/>
<path d="M161.09 130.35L162.94 131.35L162.11 132.74L160.24 131.64L160.27 133.7H158.67L158.69 131.63L156.82 132.75L156 131.36L157.85 130.36L156 129.34L156.82 127.95L158.69 129.07L158.67 127H160.27L160.24 129.07L162.11 127.95L162.94 129.34L161.09 130.35Z" fill="white"/>
<path d="M178.09 130.35L179.94 131.35L179.11 132.74L177.24 131.64L177.27 133.7H175.67L175.69 131.63L173.82 132.75L173 131.36L174.85 130.36L173 129.34L173.82 127.95L175.69 129.07L175.67 127H177.27L177.24 129.07L179.11 127.95L179.94 129.34L178.09 130.35Z" fill="white"/>
<path d="M383.47 388.07C396.56 382.51 411.72 371.58 418.48 358.18C404.36 363.85 391.91 374.49 383.47 388.07Z" fill="#263238"/>
<path d="M386.26 367.27C399.35 361.71 414.51 350.78 421.27 337.38C407.14 343.05 394.69 353.68 386.26 367.27Z" fill="#263238"/>
<path d="M390.04 347.04C403.13 341.48 418.29 330.55 425.05 317.15C410.93 322.82 398.48 333.45 390.04 347.04Z" fill="#263238"/>
<path d="M394.79 325.86C407.14 318.53 420.91 305.59 426.04 291.38C412.68 298.97 401.56 311.23 394.79 325.86Z" fill="#263238"/>
<path d="M399.87 309.65C408.87 297.88 417.26 280.36 417.15 265.18C407.29 277.6 401.15 293.42 399.87 309.65Z" fill="#263238"/>
<path d="M397.35 317.35C395.53 301.43 389.34 281.42 378.83 269.48C380.5 286.54 387.09 303.57 397.35 317.35Z" fill="#263238"/>
<path d="M393.12 334.76C389.92 318.35 381.82 298.05 369.88 286.54C373.02 304.16 381.29 321.31 393.12 334.76Z" fill="#263238"/>
<path d="M388.26 356C385.06 339.59 376.96 319.29 365.02 307.78C368.16 325.39 376.43 342.54 388.26 356Z" fill="#263238"/>
<path d="M384.36 382.06C381.16 365.65 373.06 345.35 361.12 333.84C364.26 351.46 372.53 368.61 384.36 382.06Z" fill="#263238"/>
<path d="M400.48 306.53C400.47 306.53 400.44 306.61 400.38 306.78C400.31 306.97 400.23 307.22 400.13 307.51C399.91 308.2 399.61 309.15 399.22 310.35C398.43 312.82 397.37 316.41 396.12 320.87C394.87 325.33 393.49 330.66 392.06 336.62C390.66 342.58 389.24 349.16 387.93 356.1C386.63 363.05 385.57 369.69 384.71 375.76C383.87 381.82 383.22 387.3 382.77 391.91C382.31 396.52 382 400.25 381.83 402.83C381.75 404.09 381.69 405.09 381.64 405.8C381.63 406.12 381.61 406.37 381.6 406.57C381.59 406.74 381.6 406.83 381.61 406.84C381.62 406.84 381.63 406.75 381.66 406.58C381.68 406.38 381.71 406.12 381.75 405.81C381.82 405.09 381.91 404.1 382.03 402.84C382.25 400.26 382.62 396.54 383.13 391.94C383.63 387.34 384.31 381.88 385.18 375.82C386.07 369.77 387.14 363.13 388.44 356.19C389.75 349.26 391.16 342.68 392.53 336.72C393.93 330.77 395.27 325.43 396.48 320.96C397.68 316.49 398.69 312.89 399.42 310.41C399.77 309.19 400.04 308.24 400.24 307.54C400.32 307.23 400.39 306.99 400.44 306.79C400.47 306.62 400.48 306.53 400.48 306.53Z" fill="#263238"/>
<path d="M377.09 396.74C382.64 385.11 386.68 368.77 383.95 356.01C377.8 368.34 375.36 382.83 377.09 396.74Z" fill="#455A64"/>
<path d="M367.86 381.69C373.41 370.06 377.45 353.72 374.72 340.96C368.56 353.29 366.12 367.78 367.86 381.69Z" fill="#455A64"/>
<path d="M359.58 366.38C365.13 354.75 369.17 338.41 366.44 325.65C360.28 337.98 357.84 352.47 359.58 366.38Z" fill="#455A64"/>
<path d="M351.42 349.87C355.55 337.56 357.62 320.79 353.41 308.51C348.76 321.61 348.05 336.32 351.42 349.87Z" fill="#455A64"/>
<path d="M346.11 336.35C345.7 323.26 341.85 306.86 333.72 297.19C333.92 311.22 338.32 325.15 346.11 336.35Z" fill="#455A64"/>
<path d="M348.56 342.84C338.93 333.75 324.29 324.73 311.12 323.55C321.26 333.46 334.58 340.32 348.56 342.84Z" fill="#455A64"/>
<path d="M355.06 356.61C344.27 348.06 328.23 340.03 314.37 340C325.76 349.36 340.23 355.27 355.06 356.61Z" fill="#455A64"/>
<path d="M363.17 373.22C352.38 364.67 336.34 356.64 322.48 356.61C333.87 365.97 348.35 371.88 363.17 373.22Z" fill="#455A64"/>
<path d="M374.48 392.34C363.69 383.79 347.65 375.76 333.79 375.73C345.18 385.09 359.65 391 374.48 392.34Z" fill="#455A64"/>
<path d="M344.85 333.97C344.84 333.97 344.86 334.05 344.91 334.19C344.97 334.36 345.04 334.56 345.13 334.81C345.35 335.39 345.65 336.17 346.03 337.16C346.82 339.2 348.02 342.14 349.56 345.73C352.64 352.93 357.2 362.75 362.87 373.27C365.71 378.53 368.56 383.46 371.23 387.9C373.92 392.32 376.41 396.27 378.59 399.52C380.75 402.78 382.55 405.39 383.83 407.17C384.45 408.03 384.94 408.71 385.31 409.21C385.47 409.42 385.6 409.59 385.7 409.73C385.79 409.85 385.84 409.9 385.85 409.9C385.86 409.9 385.82 409.83 385.74 409.7C385.64 409.55 385.53 409.37 385.39 409.15C385.05 408.64 384.58 407.94 383.99 407.06C382.76 405.25 381.01 402.61 378.88 399.33C376.75 396.05 374.29 392.1 371.62 387.67C368.98 383.22 366.15 378.29 363.31 373.04C357.65 362.53 353.04 352.75 349.88 345.59C348.3 342.01 347.05 339.1 346.21 337.08C345.79 336.1 345.46 335.33 345.22 334.76C345.11 334.52 345.02 334.32 344.95 334.16C344.89 334.04 344.85 333.97 344.85 333.97Z" fill="#263238"/>
<path d="M350.65 398.14H405.81V408.78H400.14L395.37 439.1H361.27L356.36 408.78H350.65V398.14Z" fill="#267FFF"/>
<path d="M350.65 408.55C350.65 408.41 362.91 408.29 378.03 408.29C393.15 408.29 405.41 408.4 405.41 408.55C405.41 408.69 393.15 408.81 378.03 408.81C362.91 408.81 350.65 408.7 350.65 408.55Z" fill="#263238"/>
<path d="M34.68 439.11H25.73L22.41 398.81H32.95L34.68 439.11Z" fill="#263238"/>
<path d="M112.27 439.11H121.23L124.55 398.81H114L112.27 439.11Z" fill="#263238"/>
<path d="M130.7 403.91L15.46 406.62L11.95 332.19C11.61 324.9 17.42 318.81 24.72 318.81H122.9C130.31 318.81 136.17 325.09 135.65 332.48L130.7 403.91Z" fill="#267FFF"/>
<path d="M136.61 331.93C136.61 331.94 136.5 331.95 136.29 331.96C136.05 331.97 135.74 331.98 135.35 331.99C134.48 332 133.27 332.02 131.72 332.04C128.53 332.05 123.98 332.07 118.36 332.09C107.08 332.11 91.5 331.98 74.3 332.38C57.09 332.95 41.5 332.85 30.22 332.68C24.58 332.59 20.02 332.48 16.86 332.39C15.31 332.34 14.09 332.3 13.23 332.27C12.84 332.25 12.53 332.24 12.29 332.22C12.08 332.21 11.97 332.2 11.97 332.19C11.97 332.18 12.08 332.17 12.29 332.17C12.53 332.17 12.84 332.17 13.23 332.16C14.09 332.17 15.31 332.18 16.86 332.19C20.05 332.22 24.6 332.26 30.22 332.32C41.5 332.4 57.08 332.44 74.29 331.86C91.5 331.46 107.09 331.65 118.37 331.72C123.98 331.77 128.54 331.81 131.73 331.84C133.28 331.86 134.5 331.87 135.36 331.88C135.75 331.89 136.06 331.9 136.3 331.9C136.5 331.92 136.61 331.92 136.61 331.93Z" fill="#263238"/>
<path d="M53.99 319.969C54.02 320.139 50.38 320.209 46.51 322.219C42.61 324.179 40.42 327.089 40.3 326.959C40.25 326.929 40.73 326.159 41.73 325.109C42.73 324.059 44.3 322.77 46.28 321.76C48.26 320.75 50.23 320.239 51.66 320.049C53.09 319.839 53.99 319.909 53.99 319.969Z" fill="#263238"/>
<path d="M101.39 184.639L115.48 210.369L136.12 198.829L146.15 202.139C146.15 202.139 120.83 229.589 116.72 230.989C112.61 232.389 104.83 232.639 100.39 227.079C96.3398 222.009 84.5498 195.399 84.5498 195.399L101.39 184.639Z" fill="#FFBE9D"/>
<path d="M159.38 167.839C159.01 167.389 158.44 167.159 157.86 167.239L148.05 168.589C147.19 168.719 146.43 169.219 145.95 169.949L125.57 201.269L127.14 202.149L137.99 201.809L159.69 168.229L159.38 167.839Z" fill="#263238"/>
<path d="M152.43 171.909C152.64 172.089 153.01 172.019 153.25 171.739C153.49 171.459 153.52 171.089 153.31 170.899C153.1 170.719 152.73 170.789 152.49 171.069C152.25 171.349 152.22 171.719 152.43 171.909Z" fill="white"/>
<path d="M159.69 168.219C159.7 168.259 159.02 168.389 157.79 168.599C156.46 168.809 154.71 169.079 152.59 169.409C151.48 169.569 150.28 169.749 148.99 169.939C148.37 169.999 147.82 170.319 147.47 170.829C147.09 171.409 146.71 172.019 146.31 172.629C144.7 175.099 142.95 177.809 141.11 180.649C137.4 186.329 134.02 191.459 131.55 195.159C130.35 196.939 129.35 198.409 128.6 199.519C127.89 200.539 127.48 201.099 127.45 201.069C127.42 201.049 127.76 200.449 128.41 199.389C129.12 198.249 130.07 196.749 131.21 194.929C133.59 191.179 136.92 186.009 140.63 180.329C142.49 177.499 144.26 174.799 145.87 172.329C146.28 171.719 146.67 171.119 147.06 170.529C147.49 169.889 148.24 169.489 148.93 169.449C150.22 169.289 151.43 169.129 152.54 168.989C154.67 168.739 156.44 168.529 157.77 168.369C159 168.239 159.68 168.179 159.69 168.219Z" fill="#455A64"/>
<path d="M148.8 179.419C148.8 179.419 147.92 179.259 147.45 181.659C146.97 184.049 145.43 190.919 145.43 190.919L140.85 188.489L135.12 189.239C135.12 189.239 133.87 190.399 134.79 191.019C135.71 191.649 139.33 192.289 139.33 192.289L142 196.129L134.33 192.429C134.33 192.429 131.77 193.099 132.52 194.659C133.27 196.219 138.44 201.109 138.44 201.109L134.6 200.819L130.03 198.049C130.03 198.049 128.63 198.109 129.15 199.309C129.67 200.499 134.43 204.819 134.43 204.819L140.19 207.619C140.19 207.619 143.34 207.369 143.64 206.449C143.94 205.529 144.02 204.209 144.02 204.209C144.02 204.209 145.69 203.759 146 202.949C146.31 202.139 146.11 200.859 146.11 200.859C146.11 200.859 148.73 201.319 149.06 199.859C149.39 198.399 149.11 195.519 148.85 194.399C148.59 193.279 149.97 182.829 149.86 182.509C149.74 182.169 150.45 178.729 148.8 179.419Z" fill="#FFBE9D"/>
<path d="M143.83 206.439C143.85 206.509 143.29 206.749 142.33 206.909C141.37 207.069 139.99 207.079 138.53 206.739C137.07 206.389 135.85 205.759 135.06 205.179C134.27 204.609 133.88 204.139 133.93 204.089C134.04 203.939 135.86 205.519 138.67 206.169C141.46 206.849 143.8 206.259 143.83 206.439Z" fill="#EB996E"/>
<path d="M142.46 204.379C142.37 204.509 141.35 203.979 140.26 203.079C139.17 202.189 138.44 201.289 138.56 201.179C138.68 201.059 139.57 201.749 140.64 202.629C141.7 203.499 142.56 204.239 142.46 204.379Z" fill="#EB996E"/>
<path d="M145.5 199.399C145.41 199.529 144.4 199.009 143.38 198.059C142.35 197.119 141.75 196.149 141.88 196.049C142.01 195.949 142.79 196.719 143.78 197.629C144.76 198.549 145.59 199.269 145.5 199.399Z" fill="#EB996E"/>
<path d="M148.68 195.399C148.52 195.469 147.94 194.379 147.03 193.209C146.13 192.019 145.23 191.189 145.33 191.049C145.42 190.919 146.53 191.589 147.49 192.849C148.47 194.099 148.83 195.349 148.68 195.399Z" fill="#EB996E"/>
<path d="M152.58 380.86C152.61 380.86 152.65 380.52 152.55 379.91C152.45 379.31 152.2 378.43 151.59 377.5C151.43 377.27 151.28 377.03 151.02 376.8C150.78 376.58 150.35 376.41 149.95 376.56C149.75 376.63 149.55 376.81 149.48 377.04C149.4 377.27 149.44 377.5 149.5 377.68C149.63 378.06 149.83 378.33 150 378.65C150.37 379.28 150.68 379.9 151.15 380.6C151.39 380.96 151.93 381.26 152.42 381.17C152.91 381.11 153.3 380.87 153.65 380.63C154.33 380.13 154.94 379.57 155.46 378.97C155.72 378.67 155.96 378.36 156.17 378.04C156.37 377.73 156.61 377.41 156.71 376.98C156.8 376.56 156.64 376.01 156.17 375.82C155.69 375.65 155.29 375.89 155.02 376.08C154.47 376.53 154.15 377 153.81 377.45C153.18 378.35 152.82 379.17 152.63 379.75C152.44 380.33 152.39 380.66 152.42 380.67C152.52 380.71 152.84 379.38 154.13 377.69C154.45 377.29 154.85 376.8 155.29 376.47C155.52 376.31 155.8 376.2 155.97 376.29C156.15 376.35 156.25 376.63 156.19 376.89C156.13 377.16 155.93 377.45 155.72 377.75C155.51 378.05 155.28 378.34 155.03 378.62C154.53 379.19 153.96 379.72 153.31 380.19C153 380.41 152.66 380.6 152.35 380.63C152.03 380.67 151.79 380.54 151.58 380.27C151.18 379.7 150.81 378.99 150.44 378.4C150.26 378.09 150.05 377.79 149.96 377.54C149.86 377.27 149.92 377.09 150.11 377.02C150.54 376.84 150.97 377.33 151.26 377.75C152.49 379.46 152.47 380.89 152.58 380.86Z" fill="#263238"/>
<path d="M128.01 381.699L115.81 408.149L96.1199 399.049L108.74 366.319L128.01 381.699Z" fill="#FFBE9D"/>
<path d="M118.11 406.379L110.98 419.979C110.98 419.979 129.23 438.849 127.52 443.069L84.6199 422.499L96.4099 395.229L118.11 406.379Z" fill="#455A64"/>
<path d="M98.6099 411.759C97.6699 411.589 96.6499 412.249 96.4399 413.179C96.2299 414.109 96.8899 415.159 97.8299 415.339C98.7699 415.529 100.02 414.769 100.12 413.829C100.22 412.879 99.3799 411.699 98.4299 411.739" fill="#E0E0E0"/>
<g opacity="0.6">
<g opacity="0.6">
<g opacity="0.6">
<g opacity="0.6">
<g opacity="0.6">
<g opacity="0.6">
<g opacity="0.6">
<g opacity="0.6">
<g opacity="0.6">
<g opacity="0.6">
<g opacity="0.6">
<g opacity="0.6">
<path opacity="0.6" d="M84.6199 422.49L86.3999 419.07L126.86 440.07C126.86 440.07 128.37 441.82 127.51 443.06L84.6199 422.49Z" fill="white"/>
</g>
</g>
</g>
</g>
</g>
</g>
</g>
</g>
</g>
</g>
</g>
</g>
<path d="M111.78 420.089C111.67 420.299 110.58 419.889 109.23 420.069C107.87 420.209 106.91 420.869 106.75 420.689C106.58 420.559 107.49 419.449 109.13 419.269C110.77 419.059 111.92 419.919 111.78 420.089Z" fill="#263238"/>
<path d="M115.39 424.109C115.34 424.339 114.26 424.259 113.13 424.799C111.98 425.309 111.34 426.179 111.13 426.069C110.92 426.009 111.36 424.709 112.79 424.059C114.21 423.399 115.48 423.909 115.39 424.109Z" fill="#263238"/>
<path d="M115.36 430.719C115.15 430.669 115.36 429.489 116.45 428.599C117.53 427.699 118.74 427.719 118.74 427.939C118.78 428.169 117.84 428.479 116.96 429.219C116.06 429.939 115.58 430.799 115.36 430.719Z" fill="#263238"/>
<path d="M113.83 414.849C113.65 414.999 112.83 414.249 111.61 413.759C110.4 413.249 109.29 413.199 109.26 412.969C109.21 412.759 110.48 412.419 111.91 413.009C113.35 413.599 114.01 414.739 113.83 414.849Z" fill="#263238"/>
<path d="M157.103 374.719L148.194 402.442L127.549 395.8L136.113 361.783L157.103 374.719Z" fill="#FFBE9D"/>
<path d="M171.779 294.22C171.779 294.22 184.387 297.518 181.111 311.308C177.835 325.099 157.507 387.675 157.507 387.675L128.008 380.063L145.714 315.047L106.773 279.643C106.767 279.63 164.18 289.652 171.779 294.22Z" fill="#2D3D45"/>
<path d="M82.6785 268.824L109.627 280.226L137.317 296.675L121.425 303.866L84.1193 289.426L66.3134 275.49L82.6785 268.824Z" fill="#2D3D45"/>
<path d="M122.13 402.85L154.29 322.35C154.29 322.35 153.57 308.62 151.04 304.28C148.51 299.94 71.8899 274.64 71.8899 274.64C71.8899 274.64 52.3699 269.94 39.3599 274.64C26.3499 279.34 16.5899 295.6 18.3999 304.64C20.2099 313.68 27.8299 320.31 27.8299 320.31L84.1799 321.99L114.89 333.19L94.2099 392.46L122.13 402.85Z" fill="#263238"/>
<path d="M150.277 400.415L144.843 414.777C144.843 414.777 165.242 431.288 164.055 435.693L118.982 420.476L127.377 391.981L150.277 400.415Z" fill="#455A64"/>
<path d="M130.564 410.002C129.608 410.013 128.738 410.856 128.709 411.811C128.679 412.766 129.535 413.66 130.486 413.668C131.437 413.676 132.52 412.694 132.445 411.742C132.361 410.787 131.315 409.79 130.384 410.015" fill="#E0E0E0"/>
<g opacity="0.6">
<g opacity="0.6">
<g opacity="0.6">
<g opacity="0.6">
<g opacity="0.6">
<g opacity="0.6">
<g opacity="0.6">
<g opacity="0.6">
<g opacity="0.6">
<g opacity="0.6">
<g opacity="0.6">
<g opacity="0.6">
<path opacity="0.6" d="M129.81 403.599L129.9 399.739L175.48 400.719C175.48 400.719 177.61 401.619 177.38 403.109L129.81 403.599Z" fill="white"/>
</g>
</g>
</g>
</g>
</g>
</g>
</g>
</g>
</g>
</g>
</g>
</g>
<path d="M145.094 415.651C145.025 415.871 143.873 415.685 142.584 416.124C141.274 416.527 140.461 417.353 140.272 417.209C140.08 417.116 140.763 415.85 142.337 415.353C143.906 414.834 145.2 415.452 145.094 415.651Z" fill="#263238"/>
<path d="M149.408 418.897C149.408 419.125 148.326 419.258 147.315 420.01C146.281 420.736 145.821 421.71 145.602 421.64C145.379 421.621 145.569 420.264 146.84 419.354C148.114 418.434 149.455 418.682 149.408 418.897Z" fill="#263238"/>
<path d="M150.651 425.383C150.435 425.377 150.409 424.168 151.31 423.096C152.193 422.009 153.381 421.79 153.435 422.012C153.511 422.229 152.656 422.713 151.935 423.617C151.191 424.493 150.878 425.424 150.651 425.383Z" fill="#263238"/>
<path d="M146.092 410.11C145.941 410.287 144.999 409.711 143.695 409.474C142.41 409.21 141.308 409.379 141.244 409.154C141.153 408.954 142.336 408.372 143.858 408.679C145.383 408.976 146.246 409.965 146.092 410.11Z" fill="#263238"/>
<path d="M84.5299 247.989C84.5299 247.989 92.4099 270.099 90.9099 272.559C89.4099 275.019 69.1299 285.159 69.1299 285.159L18.3999 304.649C18.3999 304.649 13.1899 296.359 13.1899 283.629C13.1899 270.899 30.8399 247.989 30.8399 247.989H84.5299Z" fill="#263238"/>
<path d="M29.14 275.729C29.15 275.769 29.66 275.629 30.56 275.339C31.57 275.019 32.85 274.599 34.38 274.109C37.6 273.089 42.07 271.659 47.16 270.879C52.25 270.089 56.96 270.339 60.25 271.049C63.55 271.729 65.45 272.679 65.49 272.569C65.5 272.539 65.04 272.279 64.17 271.899C63.3 271.519 61.99 271.059 60.33 270.659C57.02 269.839 52.22 269.529 47.07 270.319C41.92 271.109 37.44 272.609 34.24 273.729C32.64 274.299 31.36 274.779 30.47 275.129C29.61 275.479 29.13 275.689 29.14 275.729Z" fill="#455A64"/>
<path d="M36.3101 264.08C36.3201 264.17 38.0101 263.84 40.7501 264.05C42.1201 264.15 43.7401 264.35 45.5501 264.56C47.3601 264.77 49.3401 265.02 51.4001 265.41C55.5201 266.14 59.0701 267.58 61.3401 269.1C63.6301 270.59 64.7101 271.95 64.7901 271.88C64.8101 271.86 64.5801 271.5 64.0501 270.93C63.5201 270.36 62.7101 269.57 61.5601 268.78C59.3001 267.14 55.6701 265.61 51.5001 264.87C49.4201 264.48 47.4201 264.25 45.6101 264.06C43.8001 263.88 42.1601 263.71 40.7701 263.66C39.3801 263.61 38.2501 263.69 37.4901 263.81C36.7201 263.92 36.3101 264.05 36.3101 264.08Z" fill="#455A64"/>
<path d="M58.7199 86.4297C52.8799 85.4397 47.7499 87.6897 42.8299 90.9797C37.9099 94.2697 34.1999 99.2397 32.0599 104.76C29.8099 110.58 29.2599 117.12 30.9899 123.11C32.7199 129.1 36.8299 134.46 42.3899 137.29C49.9799 141.15 59.6999 139.8 66.4899 134.67C73.2799 129.53 77.1699 121.04 77.4899 112.53C77.7099 106.67 76.3099 100.67 73.0399 95.7997C69.7599 90.9197 64.5299 87.2797 58.7199 86.4297Z" fill="#263238"/>
<path d="M42.1199 106.28C42.9699 104.05 42.6399 101.55 42.9799 99.1897C43.7199 93.9797 47.9199 89.7997 52.7799 87.7697C57.2999 85.8797 62.8199 86.2897 68.2599 88.0497C71.9899 89.2597 75.4999 91.3597 77.9899 94.3897C81.2899 98.4097 82.4499 104.1 80.9999 109.09L54.3299 105.21C51.8299 107.28 49.2799 109.38 46.2499 110.53C45.3599 110.87 44.4099 111.12 43.4699 110.97C42.5299 110.82 41.6199 110.18 41.3999 109.26C41.1499 108.25 41.7499 107.25 42.1199 106.28Z" fill="#263238"/>
<path d="M68.8299 95.4097L45.5499 100.34C43.2999 100.49 41.5299 102.34 41.4899 104.6L41.7699 154.99C41.7899 158.43 42.9399 161.77 45.0499 164.49L47.2699 167.35C52.3299 173.88 62.5899 173.22 66.4499 165.92C66.7199 165.41 66.9099 164.96 66.9899 164.6C67.0699 164.15 67.1899 163.85 67.2099 163.46L67.6499 158.55C67.8799 154.06 67.9099 149.51 67.9099 149.55C67.9099 149.55 77.4399 148.35 79.8799 136.07C81.0899 129.96 81.1799 119.88 80.9799 111.63C80.7999 104.2 76.2499 94.9197 68.8299 95.4097Z" fill="#FFBE9D"/>
<path d="M77.4399 121.08C77.4399 121.92 76.7299 122.61 75.8499 122.62C74.9799 122.63 74.2699 121.97 74.2699 121.13C74.2699 120.29 74.9899 119.6 75.8599 119.59C76.7399 119.58 77.4399 120.24 77.4399 121.08Z" fill="#263238"/>
<path d="M78.5899 116.78C78.3899 116.98 77.2199 116.04 75.5199 115.98C73.8199 115.89 72.5299 116.72 72.3599 116.51C72.2699 116.41 72.4899 116.05 73.0499 115.67C73.5999 115.3 74.5299 114.95 75.5899 114.99C76.6499 115.04 77.5299 115.46 78.0299 115.88C78.5299 116.31 78.6999 116.69 78.5899 116.78Z" fill="#263238"/>
<path d="M62.1599 120.7C62.1599 121.54 61.4499 122.23 60.5699 122.24C59.6999 122.25 58.9899 121.59 58.9899 120.75C58.9899 119.91 59.6999 119.22 60.5799 119.21C61.4599 119.19 62.1599 119.86 62.1599 120.7Z" fill="#263238"/>
<path d="M62.4099 116.37C62.1999 116.57 61.0399 115.63 59.3299 115.57C57.6299 115.48 56.3399 116.31 56.1699 116.1C56.0799 116 56.2999 115.64 56.8599 115.26C57.4099 114.89 58.3399 114.54 59.3999 114.58C60.4599 114.63 61.3399 115.05 61.8399 115.47C62.3399 115.9 62.5099 116.28 62.4099 116.37Z" fill="#263238"/>
<path d="M67.5199 129.33C67.5199 129.23 68.5799 129.09 70.3099 128.94C70.7499 128.91 71.1599 128.84 71.2499 128.55C71.3599 128.24 71.1999 127.76 71.0099 127.25C70.6399 126.18 70.2599 125.06 69.8499 123.89C68.2499 119.1 67.0999 115.17 67.2999 115.11C67.4899 115.05 68.9499 118.88 70.5599 123.67C70.9399 124.85 71.3099 125.98 71.6599 127.05C71.8099 127.55 72.0699 128.12 71.8199 128.77C71.6899 129.09 71.3599 129.31 71.0799 129.38C70.7999 129.45 70.5499 129.45 70.3399 129.45C68.5999 129.46 67.5199 129.43 67.5199 129.33Z" fill="#263238"/>
<path d="M67.9199 149.55C67.9199 149.55 59.5899 149.76 51.5499 144.5C51.5499 144.5 55.3799 153.21 67.7899 152.54L67.9199 149.55Z" fill="#EB996E"/>
<path d="M63.1301 136.09C62.5501 135.26 61.4901 134.77 60.4201 134.84C59.6801 134.89 58.9201 135.22 58.4401 135.8C57.9701 136.38 57.8401 137.24 58.2301 137.83C58.6601 138.49 59.6201 138.68 60.4401 138.48C61.2601 138.28 61.9801 137.77 62.6701 137.26C62.8601 137.12 63.0501 136.97 63.1801 136.77C63.3001 136.57 63.3401 136.31 63.2001 136.14" fill="#EB996E"/>
<path d="M58.9501 133C59.2301 132.99 59.1601 134.85 60.6901 136.22C62.2201 137.6 64.2001 137.47 64.2001 137.73C64.2201 137.85 63.7501 138.07 62.9101 138.06C62.0901 138.06 60.9101 137.75 59.9701 136.91C59.0301 136.07 58.6601 134.98 58.6301 134.21C58.6001 133.43 58.8201 132.98 58.9501 133Z" fill="#263238"/>
<path d="M61.8124 108.415C61.6224 108.875 59.9324 108.585 57.9224 108.745C55.9124 108.865 54.2724 109.395 54.0224 108.965C53.9124 108.765 54.2124 108.335 54.8824 107.915C55.5424 107.495 56.5924 107.105 57.8024 107.015C59.0124 106.935 60.1024 107.165 60.8124 107.485C61.5424 107.815 61.8924 108.195 61.8124 108.415Z" fill="#263238"/>
<path d="M78.3899 109.31C78.0799 109.69 76.9199 109.24 75.4999 109.16C74.0899 109.04 72.8799 109.32 72.6199 108.9C72.5099 108.7 72.7099 108.32 73.2499 107.97C73.7799 107.62 74.6499 107.36 75.6199 107.43C76.5899 107.5 77.4199 107.88 77.8899 108.3C78.3799 108.72 78.5299 109.12 78.3899 109.31Z" fill="#263238"/>
<path d="M37.8499 102.69C40.2599 95.5997 50.7999 85.9397 58.2599 86.6097L70.0499 93.9997C69.2499 98.0497 66.0399 101.53 62.0599 102.65C59.9399 103.25 57.3899 103.38 56.0999 105.16C54.7799 106.99 55.4799 109.7 54.2499 111.58C52.5499 114.19 48.0299 113.98 46.7399 116.82C46.1699 118.06 46.4299 119.56 45.8399 120.79C45.0599 122.43 40.8299 124.44 39.1099 123.86C37.3899 123.28 37.4399 120.33 36.9099 118.77C35.9999 116.11 36.4199 114.75 36.7699 113.28C37.5899 109.82 36.6999 106.07 37.8499 102.69Z" fill="#263238"/>
<path d="M44.1899 125.43C44.2199 124.51 43.2399 122.3 42.3399 122.12C39.9299 121.65 35.5499 121.67 35.2699 127.83C34.8899 136.25 43.4199 134.9 43.4499 134.66C43.4599 134.47 44.0699 128.61 44.1899 125.43Z" fill="#FFBE9D"/>
<path d="M41.0199 131.35C40.9799 131.32 40.8699 131.45 40.6199 131.55C40.3699 131.65 39.9499 131.71 39.5199 131.52C38.6499 131.15 37.9599 129.71 37.9899 128.19C37.9999 127.42 38.1999 126.7 38.4999 126.11C38.7799 125.51 39.1999 125.09 39.6499 125.03C40.0999 124.95 40.3999 125.23 40.4999 125.47C40.5999 125.71 40.5399 125.88 40.5899 125.89C40.6099 125.91 40.7799 125.76 40.7199 125.41C40.6899 125.24 40.5999 125.04 40.4099 124.87C40.2199 124.7 39.9199 124.6 39.6099 124.62C38.9599 124.64 38.3499 125.21 38.0199 125.86C37.6599 126.51 37.4199 127.32 37.4099 128.18C37.3899 129.88 38.1799 131.51 39.3799 131.91C39.9599 132.09 40.4699 131.94 40.7299 131.75C40.9899 131.56 41.0499 131.37 41.0199 131.35Z" fill="#EB996E"/>
<path d="M67.5999 91.4498C68.3699 94.8798 73.5899 99.2698 75.8699 101.94C80.2299 107.03 81.0899 108.72 81.0499 120.11C83.1099 116.18 84.6899 112.33 84.5299 107.89C84.3699 103.45 82.7399 99.0098 79.6499 95.8198C76.5799 92.6298 71.9999 90.8198 67.5999 91.4498Z" fill="#263238"/>
<path d="M103.32 185.14C103.32 185.14 94.2499 170.01 91.7299 166.95C89.3699 164.08 86.3299 162.39 84.2999 161.5C83.1699 161.01 81.9799 160.67 80.7699 160.46L67.7199 157.57C67.7199 157.57 67.6999 166.48 58.3599 167.03C49.0299 167.58 41.1699 154.58 41.1699 154.58C41.1699 154.58 26.0899 156.91 22.4799 158.77C18.8699 160.63 13.1999 162.98 10.0799 178.61L7.88989 193.89L33.8899 196.29L36.3799 234.92L49.2699 243.9C49.2699 243.9 85.0199 253.19 87.2999 253.81C89.5799 254.42 90.3399 196.29 90.3399 196.29C90.3399 196.29 99.5199 190.34 103.32 185.14Z" fill="#263238"/>
<path d="M86.1999 178.64C86.2299 178.63 86.4099 179.02 86.6999 179.75C86.9999 180.48 87.3799 181.55 87.7999 182.89C88.6499 185.57 89.5799 189.36 90.0999 193.63C90.6199 197.9 90.6299 201.8 90.4599 204.61C90.3699 206.01 90.2699 207.15 90.1499 207.92C90.0399 208.7 89.9699 209.13 89.9299 209.12C89.8899 209.12 89.8999 208.68 89.9499 207.9C89.9999 207.12 90.0499 205.99 90.0899 204.59C90.1699 201.8 90.0999 197.93 89.5899 193.69C89.0699 189.46 88.1999 185.69 87.4499 182.99C87.0799 181.64 86.7499 180.56 86.5099 179.81C86.2799 179.07 86.1699 178.65 86.1999 178.64Z" fill="#455A64"/>
<path d="M85.0899 241.93L36.1399 231.27L33.8799 196.28L12.1099 194.27C12.1099 194.27 12.9199 218.19 13.7499 225.3C14.9499 235.53 20.9999 249.48 24.5399 252.27C28.0799 255.06 87.2899 253.8 87.2899 253.8L85.0899 241.93Z" fill="#FFBE9D"/>
<path d="M112.88 248.269C112.54 248.949 111.82 249.399 111.06 249.329C110.91 249.319 110.75 249.289 110.59 249.229C109.51 248.879 109.61 246.679 109.61 246.679L104.42 245.829C104.42 245.829 97.6699 250.179 95.2699 253.059C92.8699 255.939 86.7499 253.609 86.7499 253.609L84.6299 242.549L94.1799 233.909C94.1799 233.909 93.5899 234.419 94.2499 232.809C94.9099 231.189 97.9099 231.809 97.9099 231.809C98.3799 231.009 100.34 230.719 100.34 230.719L108.72 231.689C110.45 231.889 111.99 232.859 112.92 234.329L116.46 239.939C116.46 239.939 118.33 243.979 118.03 244.919C117.58 246.339 116.08 246.019 116.08 246.019C116.08 246.019 115.67 248.669 114.97 248.769C114.26 248.859 112.88 248.269 112.88 248.269Z" fill="#FFBE9D"/>
<path d="M95.0499 240.33C95.0599 240.42 96.1699 240.32 97.9599 240.39C99.7399 240.48 102.21 240.79 104.8 241.67C106.09 242.1 107.28 242.63 108.32 243.18C109.33 243.75 110.39 244.22 110.71 244.96C110.87 245.32 110.8 245.69 110.62 245.96C110.44 246.23 110.2 246.41 109.99 246.49C109.55 246.67 109.27 246.55 109.26 246.6C109.24 246.61 109.52 246.83 110.06 246.69C110.32 246.62 110.62 246.44 110.87 246.13C111.12 245.83 111.26 245.3 111.07 244.82C110.89 244.33 110.47 243.95 110.03 243.64C109.57 243.34 109.1 243.04 108.56 242.75C107.51 242.16 106.29 241.61 104.97 241.17C102.33 240.27 99.7899 240.01 97.9699 240.02C96.1499 240.03 95.0499 240.27 95.0499 240.33Z" fill="#EB996E"/>
<path d="M94.4699 245.67C94.4799 245.83 97.8899 245.69 102.08 245.93C106.27 246.16 109.64 246.69 109.67 246.53C109.68 246.46 108.85 246.24 107.49 246C106.13 245.76 104.23 245.52 102.11 245.4C99.9999 245.28 98.0799 245.31 96.6999 245.39C95.3099 245.47 94.4599 245.6 94.4699 245.67Z" fill="#EB996E"/>
<path d="M112.83 248.05C112.86 248.05 112.9 247.74 112.94 247.16C112.97 246.58 113.01 245.75 112.95 244.71C112.91 244.19 112.86 243.62 112.72 243.01C112.59 242.4 112.3 241.75 111.9 241.19C111.15 240.05 110.1 238.86 108.76 237.98C107.43 237.1 106.1 236.36 104.75 235.96C103.41 235.56 102.16 235.46 101.13 235.41C100.09 235.37 99.2598 235.4 98.6798 235.42C98.0998 235.44 97.7898 235.47 97.7798 235.51C97.7798 235.6 99.0598 235.64 101.1 235.79C102.12 235.88 103.33 236.02 104.59 236.43C105.85 236.83 107.15 237.58 108.44 238.43C109.73 239.29 110.71 240.37 111.48 241.48C112.29 242.54 112.44 243.75 112.57 244.76C112.77 246.77 112.72 248.06 112.83 248.05Z" fill="#EB996E"/>
<path d="M100.73 232.859C100.73 232.939 101.98 232.969 103.98 233.199C105.91 233.499 108.99 233.639 110.75 236.289C112.65 238.709 114.27 240.989 114.98 242.859C115.73 244.719 115.66 246.009 115.77 245.999C115.8 245.999 115.85 245.679 115.82 245.109C115.8 244.539 115.67 243.699 115.33 242.729C114.69 240.749 113.08 238.389 111.17 235.959C110.68 235.349 110.15 234.769 109.54 234.309C108.93 233.839 108.22 233.569 107.57 233.379C106.25 233.009 105.03 232.899 104.02 232.819C101.99 232.689 100.73 232.789 100.73 232.859Z" fill="#EB996E"/>
<path d="M97.0999 251.28C97.1099 251.29 97.2799 251.16 97.5999 250.9C97.9599 250.61 98.4199 250.24 98.9999 249.77C100.24 248.81 102.08 247.45 104.5 245.98L104.38 246C105.93 246.26 107.67 246.56 109.56 246.88L109.38 246.66C109.37 247.08 109.39 247.5 109.48 247.93C109.57 248.35 109.7 248.81 110.07 249.18C110.26 249.36 110.53 249.47 110.76 249.5C110.99 249.56 111.24 249.58 111.49 249.54C111.98 249.47 112.45 249.21 112.78 248.83C112.86 248.74 112.94 248.63 113.01 248.52L113.06 248.44L113.08 248.4L113.09 248.38C113.16 248.35 112.51 248.59 112.79 248.49H112.8H112.81L112.97 248.56C113.19 248.65 113.41 248.73 113.64 248.8C113.87 248.87 114.1 248.93 114.35 248.98C114.47 249 114.6 249.02 114.74 249.02C114.87 249.02 115.02 249.03 115.22 248.93C115.51 248.72 115.62 248.48 115.73 248.24C115.83 248 115.92 247.77 115.99 247.53C116.13 247.05 116.24 246.57 116.32 246.06L116.02 246.27C116.69 246.39 117.49 246.23 117.95 245.61C118.16 245.32 118.33 244.97 118.31 244.57C118.29 244.21 118.21 243.89 118.13 243.57C117.77 242.3 117.25 241.08 116.7 239.84L116.69 239.83L116.68 239.81C116.08 238.86 115.44 237.84 114.79 236.82C114.39 236.18 113.99 235.55 113.59 234.92C113.19 234.31 112.84 233.63 112.28 233.08C111.74 232.54 111.1 232.11 110.4 231.83C109.71 231.53 108.94 231.46 108.26 231.39C105.48 231.08 102.84 230.78 100.36 230.5H100.33H100.3C99.8099 230.58 99.3599 230.7 98.9199 230.86C98.4899 231.04 98.0299 231.23 97.7199 231.7L98.0099 231.61C97.1199 231.25 96.0999 231.24 95.3199 231.76C94.5399 232.27 94.1799 233.1 93.9899 233.88L94.0499 233.77C91.3099 236.24 89.0699 238.25 87.4699 239.69C86.7299 240.37 86.1399 240.91 85.6999 241.32C85.2999 241.7 85.0899 241.9 85.1099 241.92C85.1199 241.93 85.3499 241.76 85.7799 241.41C86.2399 241.02 86.8599 240.5 87.6199 239.86C89.2499 238.45 91.5299 236.49 94.3199 234.07L94.3699 234.03L94.3899 233.96C94.5699 233.27 94.9199 232.52 95.5599 232.12C96.1899 231.7 97.0899 231.71 97.8299 232.02L98.0099 232.1L98.1199 231.93C98.2999 231.65 98.6999 231.44 99.0999 231.29C99.4999 231.14 99.9499 231.03 100.39 230.96H100.33C102.8 231.25 105.45 231.56 108.22 231.89C108.93 231.97 109.59 232.03 110.22 232.31C110.85 232.56 111.43 232.95 111.92 233.44C112.41 233.92 112.75 234.56 113.16 235.19C113.56 235.82 113.96 236.45 114.36 237.09C115.01 238.11 115.65 239.13 116.25 240.08L116.23 240.05C116.78 241.26 117.29 242.48 117.64 243.69C117.72 243.99 117.8 244.3 117.81 244.57C117.84 244.81 117.72 245.07 117.56 245.28C117.26 245.71 116.65 245.84 116.14 245.76L115.88 245.72L115.84 245.97C115.76 246.44 115.66 246.92 115.53 247.37C115.41 247.8 115.22 248.32 114.99 248.49C114.98 248.5 114.89 248.52 114.78 248.51C114.68 248.51 114.57 248.49 114.46 248.48C114.24 248.44 114.03 248.39 113.81 248.32C113.59 248.25 113.38 248.18 113.17 248.1L113.02 248.04H113.01C113.28 247.94 112.64 248.17 112.7 248.15L112.69 248.17L112.67 248.2L112.63 248.27C112.58 248.35 112.52 248.44 112.45 248.51C112.19 248.81 111.83 249.02 111.45 249.08C111.26 249.11 111.07 249.1 110.88 249.05C110.67 249.02 110.54 248.96 110.41 248.85C109.92 248.34 109.85 247.42 109.84 246.68V246.49L109.66 246.46C107.77 246.16 106.02 245.89 104.47 245.65L104.4 245.64L104.35 245.67C101.92 247.2 100.11 248.61 98.9099 249.61C98.3099 250.12 97.8599 250.53 97.5599 250.81C97.2399 251.12 97.0899 251.27 97.0999 251.28Z" fill="#EB996E"/>
<path d="M176.39 216.1L111.91 216.62C109.82 216.62 107.82 217.62 107.51 219.69L100.46 266.68H67.2499C66.1799 266.68 65.3099 267.55 65.3099 268.62C65.3099 269.69 66.1799 270.56 67.2499 270.56H99.8799H106.07H173.32L180.57 220.96C180.96 218.41 178.98 216.1 176.39 216.1Z" fill="#E0E0E0"/>
<path d="M176.39 216.1C176.39 216.1 176.74 216.06 177.41 216.2C178.06 216.35 179.07 216.75 179.87 217.83C180.27 218.36 180.57 219.07 180.67 219.89C180.78 220.72 180.54 221.6 180.43 222.54C180.16 224.44 179.85 226.63 179.5 229.08C178.08 238.93 176.04 253.13 173.52 270.59L173.5 270.76H173.33C145.88 270.78 109.81 270.8 70.4199 270.82C69.4899 270.82 68.5699 270.82 67.6499 270.82C67.2199 270.84 66.6299 270.81 66.1799 270.54C65.7199 270.29 65.3699 269.87 65.1899 269.38C64.7999 268.4 65.2699 267.19 66.1899 266.7C66.6299 266.43 67.2199 266.41 67.6399 266.43H68.9999C72.6299 266.43 76.2299 266.43 79.7799 266.43C86.8799 266.43 93.7899 266.43 100.46 266.44L100.21 266.65C102.75 249.82 105.11 234.12 107.24 220.03C107.31 219.14 107.72 218.17 108.43 217.57C109.13 216.95 110.02 216.62 110.9 216.48C111.8 216.34 112.65 216.42 113.5 216.39C114.35 216.38 115.19 216.38 116.03 216.37C119.38 216.35 122.62 216.33 125.74 216.3C131.98 216.26 137.75 216.22 142.99 216.19C153.46 216.14 161.8 216.09 167.55 216.06C170.41 216.05 172.61 216.05 174.12 216.05C174.86 216.05 175.42 216.06 175.82 216.06C176.2 216.09 176.39 216.1 176.39 216.1C176.39 216.1 176.2 216.12 175.81 216.13C175.41 216.14 174.85 216.15 174.11 216.17C172.6 216.19 170.39 216.22 167.54 216.26C161.79 216.32 153.45 216.42 142.98 216.53C137.74 216.58 131.97 216.64 125.73 216.7C122.61 216.73 119.37 216.76 116.02 216.79C115.18 216.8 114.34 216.81 113.49 216.81C112.64 216.84 111.77 216.77 110.95 216.9C110.13 217.03 109.32 217.34 108.7 217.89C108.07 218.44 107.73 219.21 107.65 220.09C105.55 234.18 103.21 249.88 100.69 266.72L100.66 266.93H100.44C93.7799 266.93 86.8599 266.93 79.7599 266.94C76.2099 266.94 72.6199 266.94 68.9799 266.94H67.6199C67.1399 266.93 66.7799 266.95 66.4199 267.15C65.7099 267.52 65.3599 268.44 65.6599 269.19C65.7999 269.56 66.0699 269.89 66.4199 270.08C66.7799 270.29 67.1399 270.31 67.6299 270.29C68.5499 270.29 69.4699 270.29 70.3999 270.29C109.79 270.31 145.86 270.34 173.31 270.35L173.11 270.52C175.7 253.07 177.8 238.88 179.26 229.04C179.63 226.58 179.96 224.4 180.24 222.5C180.35 221.55 180.6 220.68 180.5 219.89C180.42 219.1 180.13 218.41 179.75 217.89C178.99 216.82 178 216.41 177.37 216.25C176.74 216.1 176.39 216.13 176.39 216.1Z" fill="#263238"/>
<path d="M141.42 246.78C143.651 246.78 145.46 244.971 145.46 242.74C145.46 240.508 143.651 238.7 141.42 238.7C139.189 238.7 137.38 240.508 137.38 242.74C137.38 244.971 139.189 246.78 141.42 246.78Z" fill="white"/>
<path d="M103.08 270.13C103.17 270.15 105.22 258.18 107.66 243.41C110.1 228.63 112 216.64 111.91 216.63C111.82 216.62 109.77 228.58 107.33 243.36C104.89 258.12 102.99 270.12 103.08 270.13Z" fill="#263238"/>
</svg>
