<svg width="16" height="16" viewBox="0 0 16 16" fill="none" xmlns="http://www.w3.org/2000/svg">
<path d="M13.6251 2.37501C13.1276 2.37649 12.6447 2.54296 12.252 2.84833C11.8592 3.15371 11.5789 3.58074 11.4549 4.06251H9.08569C8.98081 3.2273 8.64364 2.43828 8.11255 1.7852C7.58146 1.13211 6.87775 0.641174 6.08146 0.368216C5.28518 0.0952577 4.42827 0.0512363 3.60821 0.241158C2.78814 0.43108 2.03783 0.847322 1.44261 1.44254C0.847383 2.03777 0.431141 2.78808 0.241219 3.60814C0.0512974 4.42821 0.0953188 5.28512 0.368277 6.0814C0.641235 6.87769 1.13217 7.5814 1.78526 8.11249C2.43834 8.64358 3.22736 8.98075 4.06257 9.08563V11.4549C3.53232 11.5918 3.07021 11.9174 2.76285 12.3706C2.4555 12.8239 2.324 13.3737 2.393 13.9169C2.46201 14.4602 2.72678 14.9597 3.13769 15.3217C3.5486 15.6837 4.07743 15.8834 4.62507 15.8834C5.1727 15.8834 5.70154 15.6837 6.11245 15.3217C6.52336 14.9597 6.78813 14.4602 6.85713 13.9169C6.92614 13.3737 6.79464 12.8239 6.48728 12.3706C6.17992 11.9174 5.71781 11.5918 5.18757 11.4549V9.08619C5.9872 8.98555 6.74477 8.6707 7.38019 8.17494L9.44401 10.2393C9.23738 10.5823 9.1272 10.9746 9.12507 11.375C9.12507 11.82 9.25703 12.255 9.50426 12.625C9.7515 12.9951 10.1029 13.2834 10.514 13.4537C10.9252 13.624 11.3776 13.6686 11.814 13.5818C12.2505 13.495 12.6514 13.2807 12.9661 12.966C13.2807 12.6513 13.495 12.2504 13.5818 11.814C13.6687 11.3775 13.6241 10.9251 13.4538 10.514C13.2835 10.1028 12.9951 9.75143 12.6251 9.5042C12.2551 9.25697 11.8201 9.12501 11.3751 9.12501C10.9747 9.12711 10.5823 9.2373 10.2394 9.44394L8.17501 7.37957C8.6709 6.74438 8.98594 5.987 9.08682 5.18751H11.4555C11.5614 5.59397 11.7792 5.96258 12.0841 6.25148C12.389 6.54039 12.7688 6.738 13.1804 6.82189C13.592 6.90577 14.0189 6.87256 14.4125 6.72603C14.8062 6.5795 15.1508 6.32552 15.4074 5.99294C15.6639 5.66035 15.8221 5.26249 15.8639 4.84454C15.9057 4.42658 15.8294 4.00528 15.6438 3.62849C15.4582 3.25169 15.1706 2.93449 14.8138 2.71292C14.4569 2.49135 14.0451 2.37428 13.6251 2.37501ZM5.75007 13.625C5.75007 13.8475 5.68409 14.065 5.56047 14.25C5.43685 14.435 5.26115 14.5792 5.05559 14.6644C4.85002 14.7495 4.62382 14.7718 4.40559 14.7284C4.18736 14.685 3.98691 14.5778 3.82957 14.4205C3.67224 14.2632 3.56509 14.0627 3.52168 13.8445C3.47828 13.6263 3.50056 13.4001 3.5857 13.1945C3.67085 12.9889 3.81505 12.8132 4.00005 12.6896C4.18506 12.566 4.40256 12.5 4.62507 12.5C4.92335 12.5003 5.20932 12.6189 5.42023 12.8298C5.63115 13.0408 5.74977 13.3267 5.75007 13.625ZM4.62507 8.00001C3.95756 8.00001 3.30503 7.80207 2.75002 7.43122C2.195 7.06037 1.76242 6.53326 1.50697 5.91656C1.25153 5.29986 1.18469 4.62126 1.31492 3.96658C1.44514 3.31189 1.76658 2.71052 2.23858 2.23852C2.71059 1.76652 3.31195 1.44508 3.96664 1.31486C4.62132 1.18463 5.29992 1.25147 5.91663 1.50691C6.53333 1.76236 7.06043 2.19494 7.43128 2.74996C7.80213 3.30497 8.00007 3.9575 8.00007 4.62501C7.99903 5.51979 7.64311 6.37763 7.0104 7.01034C6.37769 7.64305 5.51985 7.99897 4.62507 8.00001ZM12.5001 11.375C12.5001 11.5975 12.4341 11.815 12.3105 12C12.1869 12.185 12.0112 12.3292 11.8056 12.4144C11.6 12.4995 11.3738 12.5218 11.1556 12.4784C10.9374 12.435 10.7369 12.3278 10.5796 12.1705C10.4222 12.0132 10.3151 11.8127 10.2717 11.5945C10.2283 11.3763 10.2506 11.1501 10.3357 10.9445C10.4209 10.7389 10.565 10.5632 10.7501 10.4396C10.9351 10.316 11.1526 10.25 11.3751 10.25C11.6733 10.2503 11.9593 10.3689 12.1702 10.5798C12.3811 10.7908 12.4998 11.0767 12.5001 11.375ZM13.6251 5.75001C13.4026 5.75001 13.1851 5.68403 13.0001 5.56041C12.815 5.43679 12.6709 5.26109 12.5857 5.05553C12.5006 4.84996 12.4783 4.62376 12.5217 4.40553C12.5651 4.1873 12.6722 3.98685 12.8296 3.82951C12.9869 3.67218 13.1874 3.56503 13.4056 3.52162C13.6238 3.47822 13.85 3.50049 14.0556 3.58564C14.2612 3.67079 14.4369 3.81499 14.5605 3.99999C14.6841 4.185 14.7501 4.4025 14.7501 4.62501C14.7498 4.92328 14.6311 5.20926 14.4202 5.42017C14.2093 5.63109 13.9233 5.74971 13.6251 5.75001Z" fill="#5E5873"/>
</svg>
