<svg width="22" height="18" viewBox="0 0 22 18" fill="none" xmlns="http://www.w3.org/2000/svg">
<g clip-path="url(#clip0_779_1492)">
<path d="M21.225 9.88829L20.7133 9.45079C20.7375 9.30236 20.75 9.15079 20.75 8.99923C20.75 8.84767 20.7375 8.69611 20.7133 8.54767L21.225 8.11017C21.2636 8.07713 21.2912 8.03312 21.3042 7.984C21.3172 7.93487 21.3149 7.88296 21.2976 7.83517L21.2906 7.81486C21.1497 7.42113 20.9388 7.05613 20.6679 6.73751L20.6539 6.72111C20.621 6.68247 20.5772 6.6547 20.5283 6.64146C20.4793 6.62821 20.4275 6.6301 20.3797 6.64689L19.7445 6.87267C19.5101 6.68048 19.2484 6.52892 18.9656 6.42267L18.8429 5.75861C18.8337 5.70864 18.8095 5.66267 18.7735 5.62681C18.7374 5.59094 18.6914 5.56688 18.6414 5.55782L18.6203 5.55392C18.2133 5.48048 17.7851 5.48048 17.3781 5.55392L17.357 5.55782C17.307 5.56688 17.2609 5.59094 17.2249 5.62681C17.1889 5.66267 17.1647 5.70864 17.1554 5.75861L17.032 6.42579C16.7515 6.53207 16.4902 6.68355 16.2586 6.87423L15.6187 6.64689C15.5709 6.62997 15.519 6.62801 15.4701 6.64126C15.4211 6.65452 15.3773 6.68237 15.3445 6.72111L15.3304 6.73751C15.0599 7.05636 14.849 7.42129 14.7078 7.81486L14.7008 7.83517C14.6656 7.93282 14.6945 8.0422 14.7734 8.11017L15.2914 8.55236C15.2672 8.69923 15.2554 8.84923 15.2554 8.99845C15.2554 9.14845 15.2672 9.29845 15.2914 9.44454L14.7734 9.88673C14.7348 9.91977 14.7072 9.96378 14.6942 10.0129C14.6812 10.062 14.6835 10.1139 14.7008 10.1617L14.7078 10.182C14.8492 10.5758 15.0586 10.9391 15.3304 11.2594L15.3445 11.2758C15.3774 11.3144 15.4212 11.3422 15.4701 11.3554C15.5191 11.3687 15.5709 11.3668 15.6187 11.35L16.2586 11.1227C16.4914 11.3141 16.7515 11.4656 17.032 11.5711L17.1554 12.2383C17.1647 12.2883 17.1889 12.3342 17.2249 12.3701C17.2609 12.406 17.307 12.43 17.357 12.4391L17.3781 12.443C17.7889 12.5168 18.2095 12.5168 18.6203 12.443L18.6414 12.4391C18.6914 12.43 18.7374 12.406 18.7735 12.3701C18.8095 12.3342 18.8337 12.2883 18.8429 12.2383L18.9656 11.5742C19.2483 11.4683 19.5115 11.3162 19.7445 11.1242L20.3797 11.35C20.4275 11.3669 20.4794 11.3689 20.5283 11.3556C20.5773 11.3424 20.6211 11.3145 20.6539 11.2758L20.6679 11.2594C20.9398 10.9383 21.1492 10.5758 21.2906 10.182L21.2976 10.1617C21.3328 10.0656 21.3039 9.95626 21.225 9.88829ZM20.1586 8.63986C20.1781 8.75782 20.1883 8.87892 20.1883 9.00001C20.1883 9.12111 20.1781 9.2422 20.1586 9.36017L20.107 9.67345L20.6906 10.1727C20.6021 10.3765 20.4905 10.5694 20.3578 10.7477L19.6328 10.4906L19.3875 10.6922C19.2008 10.8453 18.9929 10.9656 18.7679 11.05L18.4703 11.1617L18.3304 11.9195C18.1098 11.9445 17.887 11.9445 17.6664 11.9195L17.5265 11.1602L17.2312 11.0469C17.0086 10.9625 16.8015 10.8422 16.6164 10.6899L16.3711 10.4875L15.6414 10.7469C15.5086 10.568 15.3976 10.375 15.3086 10.1719L15.8984 9.66798L15.8476 9.35548C15.8289 9.23907 15.8187 9.11876 15.8187 9.00001C15.8187 8.88048 15.8281 8.76095 15.8476 8.64454L15.8984 8.33204L15.3086 7.82814C15.3969 7.62423 15.5086 7.43204 15.6414 7.25314L16.3711 7.51251L16.6164 7.31017C16.8015 7.15782 17.0086 7.03751 17.2312 6.95314L17.5273 6.84142L17.6672 6.08204C17.8867 6.05704 18.1109 6.05704 18.3312 6.08204L18.4711 6.83986L18.7687 6.95157C18.9929 7.03595 19.2015 7.15626 19.3883 7.30939L19.6336 7.51095L20.3586 7.25392C20.4914 7.43282 20.6023 7.62579 20.6914 7.82892L20.1078 8.32814L20.1586 8.63986ZM18 7.54689C17.2406 7.54689 16.625 8.16251 16.625 8.92189C16.625 9.68126 17.2406 10.2969 18 10.2969C18.7594 10.2969 19.375 9.68126 19.375 8.92189C19.375 8.16251 18.7594 7.54689 18 7.54689ZM18.6187 9.54064C18.5376 9.62203 18.4411 9.68656 18.3349 9.73054C18.2287 9.77452 18.1149 9.79707 18 9.79689C17.7664 9.79689 17.5469 9.70548 17.3812 9.54064C17.2998 9.45948 17.2353 9.36304 17.1913 9.25685C17.1473 9.15066 17.1248 9.03682 17.125 8.92189C17.125 8.68829 17.2164 8.46876 17.3812 8.30314C17.5469 8.13751 17.7664 8.04689 18 8.04689C18.2336 8.04689 18.4531 8.13751 18.6187 8.30314C18.7001 8.38429 18.7647 8.48074 18.8086 8.58693C18.8526 8.69312 18.8752 8.80695 18.875 8.92189C18.875 9.15548 18.7836 9.37501 18.6187 9.54064Z" fill="#5E5873"/>
</g>
<path fill-rule="evenodd" clip-rule="evenodd" d="M3.01196 5.25C3.01196 3.15 4.66854 1.5 6.77691 1.5C8.88528 1.5 10.5419 3.15 10.5419 5.25C10.5419 7.35 8.88528 9 6.77691 9C4.66854 9 3.01196 7.35 3.01196 5.25ZM13.5538 14.25V15.75C13.5538 16.2 13.2526 16.5 12.8008 16.5C12.349 16.5 12.0478 16.2 12.0478 15.75V14.25C12.0478 12.975 11.0689 12 9.78887 12H3.76495C2.48487 12 1.50598 12.975 1.50598 14.25V15.75C1.50598 16.2 1.20478 16.5 0.75299 16.5C0.301196 16.5 0 16.2 0 15.75V14.25C0 12.15 1.65658 10.5 3.76495 10.5H9.78887C11.8972 10.5 13.5538 12.15 13.5538 14.25ZM6.7769 7.5C5.49682 7.5 4.51794 6.525 4.51794 5.25C4.51794 3.975 5.49682 3 6.7769 3C8.05699 3 9.03587 3.975 9.03587 5.25C9.03587 6.525 8.05699 7.5 6.7769 7.5ZM15.2104 10.65C14.8339 10.575 14.3821 10.8 14.3068 11.175C14.2315 11.55 14.4574 12 14.8339 12.075C15.8128 12.3 16.4905 13.2 16.4905 14.25V15.75C16.4905 16.2 16.7917 16.5 17.2435 16.5C17.6953 16.5 17.9964 16.2 17.9964 15.75V14.25C18.0717 12.525 16.9423 11.025 15.2104 10.65ZM11.2949 2.175C11.4454 1.725 11.8219 1.5 12.1984 1.65C14.2315 2.1 15.4363 4.2 14.9092 6.3C14.608 7.65 13.5538 8.625 12.1984 9H12.0478C11.6713 9 11.3702 8.775 11.2949 8.4C11.1443 8.025 11.4454 7.575 11.8219 7.5C12.6502 7.275 13.2526 6.675 13.4785 5.85C13.7797 4.575 13.0267 3.375 11.8219 3.075C11.4454 3 11.2196 2.55 11.2949 2.175Z" fill="black"/>
<mask id="mask0_779_1492" style="mask-type:luminance" maskUnits="userSpaceOnUse" x="0" y="1" width="18" height="16">
<path fill-rule="evenodd" clip-rule="evenodd" d="M3.01196 5.25C3.01196 3.15 4.66854 1.5 6.77691 1.5C8.88528 1.5 10.5419 3.15 10.5419 5.25C10.5419 7.35 8.88528 9 6.77691 9C4.66854 9 3.01196 7.35 3.01196 5.25ZM13.5538 14.25V15.75C13.5538 16.2 13.2526 16.5 12.8008 16.5C12.349 16.5 12.0478 16.2 12.0478 15.75V14.25C12.0478 12.975 11.0689 12 9.78887 12H3.76495C2.48487 12 1.50598 12.975 1.50598 14.25V15.75C1.50598 16.2 1.20478 16.5 0.75299 16.5C0.301196 16.5 0 16.2 0 15.75V14.25C0 12.15 1.65658 10.5 3.76495 10.5H9.78887C11.8972 10.5 13.5538 12.15 13.5538 14.25ZM6.7769 7.5C5.49682 7.5 4.51794 6.525 4.51794 5.25C4.51794 3.975 5.49682 3 6.7769 3C8.05699 3 9.03587 3.975 9.03587 5.25C9.03587 6.525 8.05699 7.5 6.7769 7.5ZM15.2104 10.65C14.8339 10.575 14.3821 10.8 14.3068 11.175C14.2315 11.55 14.4574 12 14.8339 12.075C15.8128 12.3 16.4905 13.2 16.4905 14.25V15.75C16.4905 16.2 16.7917 16.5 17.2435 16.5C17.6953 16.5 17.9964 16.2 17.9964 15.75V14.25C18.0717 12.525 16.9423 11.025 15.2104 10.65ZM11.2949 2.175C11.4454 1.725 11.8219 1.5 12.1984 1.65C14.2315 2.1 15.4363 4.2 14.9092 6.3C14.608 7.65 13.5538 8.625 12.1984 9H12.0478C11.6713 9 11.3702 8.775 11.2949 8.4C11.1443 8.025 11.4454 7.575 11.8219 7.5C12.6502 7.275 13.2526 6.675 13.4785 5.85C13.7797 4.575 13.0267 3.375 11.8219 3.075C11.4454 3 11.2196 2.55 11.2949 2.175Z" fill="white"/>
</mask>
<g mask="url(#mask0_779_1492)">
<rect width="18" height="18" fill="#6E6B7B"/>
</g>
<defs>
<clipPath id="clip0_779_1492">
<rect width="8" height="8" fill="white" transform="translate(14 5)"/>
</clipPath>
</defs>
</svg>
