<svg width="13" height="13" viewBox="0 0 13 13" fill="none" xmlns="http://www.w3.org/2000/svg">
<path fill-rule="evenodd" clip-rule="evenodd" d="M10.5364 3.69314C10.7416 3.89836 11.0743 3.89836 11.2795 3.69314C11.4848 3.48791 11.4848 3.15518 11.2795 2.94996L10.3847 2.05509C10.1795 1.84987 9.84672 1.84987 9.6415 2.05509C9.43628 2.26031 9.43628 2.59304 9.6415 2.79826L10.5364 3.69314ZM9.15109 5.82159C9.60342 5.36926 9.60342 4.63588 9.15109 4.18355C8.69875 3.73121 7.96538 3.73121 7.51304 4.18355L2.45797 9.23862C2.2928 9.40379 2.18143 9.61503 2.13848 9.84463C1.98874 10.6449 2.68969 11.3459 3.49 11.1962C3.7196 11.1532 3.93085 11.0418 4.09601 10.8767L9.15109 5.82159ZM12.6286 2.42331C13.1247 2.91939 13.1247 3.72371 12.6286 4.21979L4.63514 12.2132C4.54058 12.3078 4.41963 12.3716 4.28818 12.3962L1.11942 12.989C0.661206 13.0748 0.259883 12.6734 0.345614 12.2152L0.938478 9.04646C0.963073 8.915 1.02684 8.79406 1.1214 8.69949L9.11485 0.706048C9.61093 0.209963 10.4152 0.209963 10.9113 0.706048L12.6286 2.42331ZM12.3406 13.0007H6.99405C6.11396 13.0007 6.11396 11.6673 6.99405 11.6673H12.3406C13.2207 11.6673 13.2207 13.0007 12.3406 13.0007Z" fill="white"/>
</svg>
