<svg width="17" height="17" viewBox="0 0 17 17" fill="none" xmlns="http://www.w3.org/2000/svg">
<path d="M0.5 3C0.5 1.61929 1.61929 0.5 3 0.5H14C15.3807 0.5 16.5 1.61929 16.5 3V14C16.5 15.3807 15.3807 16.5 14 16.5H3C1.61929 16.5 0.5 15.3807 0.5 14V3Z" stroke="#6E6B7B"/>
<mask id="path-2-inside-1_514_13776" fill="white">
<path d="M12.9815 5.38462H11.25L10.8375 4.26209C10.809 4.18528 10.7568 4.11888 10.688 4.07197C10.6191 4.02506 10.5371 3.99993 10.453 4H6.54699C6.37512 4 6.22106 4.10508 6.16377 4.26209L5.75 5.38462H4.01852C3.45579 5.38462 3 5.8272 3 6.37363V12.011C3 12.5574 3.45579 13 4.01852 13H12.9815C13.5442 13 14 12.5574 14 12.011V6.37363C14 5.8272 13.5442 5.38462 12.9815 5.38462ZM13.0833 12.011C13.0833 12.0654 13.0375 12.1099 12.9815 12.1099H4.01852C3.9625 12.1099 3.91667 12.0654 3.91667 12.011V6.37363C3.91667 6.31923 3.9625 6.27473 4.01852 6.27473H6.39549L6.61319 5.68379L6.90475 4.89011H10.094L10.3855 5.68379L10.6032 6.27473H12.9815C13.0375 6.27473 13.0833 6.31923 13.0833 6.37363V12.011ZM8.5 7.06593C7.37454 7.06593 6.46296 7.9511 6.46296 9.04396C6.46296 10.1368 7.37454 11.022 8.5 11.022C9.62546 11.022 10.537 10.1368 10.537 9.04396C10.537 7.9511 9.62546 7.06593 8.5 7.06593ZM8.5 10.2308C7.82523 10.2308 7.27778 9.69918 7.27778 9.04396C7.27778 8.38874 7.82523 7.85714 8.5 7.85714C9.17477 7.85714 9.72222 8.38874 9.72222 9.04396C9.72222 9.69918 9.17477 10.2308 8.5 10.2308Z"/>
</mask>
<path d="M12.9815 5.38462H11.25L10.8375 4.26209C10.809 4.18528 10.7568 4.11888 10.688 4.07197C10.6191 4.02506 10.5371 3.99993 10.453 4H6.54699C6.37512 4 6.22106 4.10508 6.16377 4.26209L5.75 5.38462H4.01852C3.45579 5.38462 3 5.8272 3 6.37363V12.011C3 12.5574 3.45579 13 4.01852 13H12.9815C13.5442 13 14 12.5574 14 12.011V6.37363C14 5.8272 13.5442 5.38462 12.9815 5.38462ZM13.0833 12.011C13.0833 12.0654 13.0375 12.1099 12.9815 12.1099H4.01852C3.9625 12.1099 3.91667 12.0654 3.91667 12.011V6.37363C3.91667 6.31923 3.9625 6.27473 4.01852 6.27473H6.39549L6.61319 5.68379L6.90475 4.89011H10.094L10.3855 5.68379L10.6032 6.27473H12.9815C13.0375 6.27473 13.0833 6.31923 13.0833 6.37363V12.011ZM8.5 7.06593C7.37454 7.06593 6.46296 7.9511 6.46296 9.04396C6.46296 10.1368 7.37454 11.022 8.5 11.022C9.62546 11.022 10.537 10.1368 10.537 9.04396C10.537 7.9511 9.62546 7.06593 8.5 7.06593ZM8.5 10.2308C7.82523 10.2308 7.27778 9.69918 7.27778 9.04396C7.27778 8.38874 7.82523 7.85714 8.5 7.85714C9.17477 7.85714 9.72222 8.38874 9.72222 9.04396C9.72222 9.69918 9.17477 10.2308 8.5 10.2308Z" fill="#F8F8F8"/>
<path d="M11.25 5.38462L10.3114 5.72954L10.5521 6.38462H11.25V5.38462ZM10.8375 4.26209L11.7761 3.91716L11.7751 3.91424L10.8375 4.26209ZM10.453 4V5L10.4539 5L10.453 4ZM6.16377 4.26209L7.10206 4.60795L7.10318 4.60488L6.16377 4.26209ZM5.75 5.38462V6.38462H6.44716L6.68829 5.73048L5.75 5.38462ZM6.39549 6.27473V7.27473H7.09278L7.33383 6.62042L6.39549 6.27473ZM6.61319 5.68379L7.55154 6.02949L7.55187 6.0286L6.61319 5.68379ZM6.90475 4.89011V3.89011H6.20675L5.96607 4.5453L6.90475 4.89011ZM10.094 4.89011L11.0327 4.5453L10.792 3.89011H10.094V4.89011ZM10.3855 5.68379L9.44686 6.0286L9.44719 6.02949L10.3855 5.68379ZM10.6032 6.27473L9.6649 6.62043L9.90595 7.27473H10.6032V6.27473ZM12.9815 4.38462H11.25V6.38462H12.9815V4.38462ZM12.1886 5.03969L11.7761 3.91717L9.89887 4.60701L10.3114 5.72954L12.1886 5.03969ZM11.7751 3.91424C11.6731 3.63957 11.4883 3.40733 11.2512 3.24568L10.1247 4.89826C10.0252 4.83044 9.94486 4.73098 9.89995 4.60994L11.7751 3.91424ZM11.2512 3.24568C11.0144 3.08428 10.7354 2.99976 10.4522 3L10.4539 5C10.3388 5.0001 10.2239 4.96585 10.1247 4.89826L11.2512 3.24568ZM10.453 3H6.54699V5H10.453V3ZM6.54699 3C5.97298 3 5.43172 3.35103 5.22436 3.91929L7.10318 4.60488C7.01041 4.85913 6.77725 5 6.54699 5V3ZM5.22549 3.91623L4.81171 5.03876L6.68829 5.73048L7.10206 4.60795L5.22549 3.91623ZM5.75 4.38462H4.01852V6.38462H5.75V4.38462ZM4.01852 4.38462C2.93142 4.38462 2 5.2474 2 6.37363H4C4 6.37504 3.99983 6.37741 3.99922 6.38033C3.99862 6.38317 3.99777 6.38572 3.99687 6.38777C3.99512 6.39181 3.99381 6.39267 3.99487 6.39163C3.99595 6.39059 3.99824 6.38883 4.00175 6.38738C4.00468 6.38618 4.00979 6.38462 4.01852 6.38462V4.38462ZM2 6.37363V12.011H4V6.37363H2ZM2 12.011C2 13.1372 2.93142 14 4.01852 14V12C4.00979 12 4.00468 11.9984 4.00175 11.9972C3.99824 11.9958 3.99595 11.994 3.99487 11.993C3.99381 11.9919 3.99512 11.9928 3.99687 11.9968C3.99777 11.9989 3.99862 12.0014 3.99922 12.0043C3.99983 12.0072 4 12.0096 4 12.011H2ZM4.01852 14H12.9815V12H4.01852V14ZM12.9815 14C14.0686 14 15 13.1372 15 12.011H13C13 12.0096 13.0002 12.0072 13.0008 12.0043C13.0014 12.0014 13.0022 11.9989 13.0031 11.9968C13.0049 11.9928 13.0062 11.9919 13.0051 11.993C13.004 11.994 13.0018 11.9958 12.9982 11.9972C12.9953 11.9984 12.9902 12 12.9815 12V14ZM15 12.011V6.37363H13V12.011H15ZM15 6.37363C15 5.2474 14.0686 4.38462 12.9815 4.38462V6.38462C12.9902 6.38462 12.9953 6.38618 12.9982 6.38738C13.0018 6.38883 13.004 6.39059 13.0051 6.39163C13.0062 6.39267 13.0049 6.39181 13.0031 6.38777C13.0022 6.38572 13.0014 6.38317 13.0008 6.38033C13.0002 6.37741 13 6.37504 13 6.37363H15ZM12.0833 12.011C12.0833 11.4856 12.5131 11.1099 12.9815 11.1099V13.1099C13.5619 13.1099 14.0833 12.6452 14.0833 12.011H12.0833ZM12.9815 11.1099H4.01852V13.1099H12.9815V11.1099ZM4.01852 11.1099C4.48687 11.1099 4.91667 11.4856 4.91667 12.011H2.91667C2.91667 12.6452 3.43813 13.1099 4.01852 13.1099V11.1099ZM4.91667 12.011V6.37363H2.91667V12.011H4.91667ZM4.91667 6.37363C4.91667 6.89902 4.48687 7.27473 4.01852 7.27473V5.27473C3.43813 5.27473 2.91667 5.73944 2.91667 6.37363H4.91667ZM4.01852 7.27473H6.39549V5.27473H4.01852V7.27473ZM7.33383 6.62042L7.55154 6.02949L5.67485 5.33809L5.45714 5.92903L7.33383 6.62042ZM7.55187 6.0286L7.84342 5.23492L5.96607 4.5453L5.67452 5.33898L7.55187 6.0286ZM6.90475 5.89011H10.094V3.89011H6.90475V5.89011ZM9.15531 5.23492L9.44686 6.0286L11.3242 5.33898L11.0327 4.5453L9.15531 5.23492ZM9.44719 6.02949L9.6649 6.62043L11.5416 5.92903L11.3239 5.33809L9.44719 6.02949ZM10.6032 7.27473H12.9815V5.27473H10.6032V7.27473ZM12.9815 7.27473C12.5131 7.27473 12.0833 6.89902 12.0833 6.37363H14.0833C14.0833 5.73944 13.5619 5.27473 12.9815 5.27473V7.27473ZM12.0833 6.37363V12.011H14.0833V6.37363H12.0833ZM8.5 6.06593C6.85017 6.06593 5.46296 7.37131 5.46296 9.04396H7.46296C7.46296 8.53089 7.89891 8.06593 8.5 8.06593V6.06593ZM5.46296 9.04396C5.46296 10.7166 6.85017 12.022 8.5 12.022V10.022C7.89891 10.022 7.46296 9.55702 7.46296 9.04396H5.46296ZM8.5 12.022C10.1498 12.022 11.537 10.7166 11.537 9.04396H9.53704C9.53704 9.55702 9.10109 10.022 8.5 10.022V12.022ZM11.537 9.04396C11.537 7.37131 10.1498 6.06593 8.5 6.06593V8.06593C9.10109 8.06593 9.53704 8.53089 9.53704 9.04396H11.537ZM8.5 9.23077C8.3496 9.23077 8.27778 9.11938 8.27778 9.04396H6.27778C6.27778 10.279 7.30086 11.2308 8.5 11.2308V9.23077ZM8.27778 9.04396C8.27778 8.96853 8.3496 8.85714 8.5 8.85714V6.85714C7.30086 6.85714 6.27778 7.80894 6.27778 9.04396H8.27778ZM8.5 8.85714C8.6504 8.85714 8.72222 8.96853 8.72222 9.04396H10.7222C10.7222 7.80894 9.69914 6.85714 8.5 6.85714V8.85714ZM8.72222 9.04396C8.72222 9.11938 8.6504 9.23077 8.5 9.23077V11.2308C9.69914 11.2308 10.7222 10.279 10.7222 9.04396H8.72222Z" fill="#6E6B7B" mask="url(#path-2-inside-1_514_13776)"/>
</svg>
