<svg width="102" height="102" viewBox="0 0 102 102" fill="none" xmlns="http://www.w3.org/2000/svg">
<path fill-rule="evenodd" clip-rule="evenodd" d="M29.75 29.75C29.75 17.85 39.1 8.5 51 8.5C62.9 8.5 72.25 17.85 72.25 29.75C72.25 41.65 62.9 51 51 51C39.1 51 29.75 41.65 29.75 29.75ZM89.25 80.75V89.25C89.25 91.8 87.55 93.5 85 93.5C82.45 93.5 80.75 91.8 80.75 89.25V80.75C80.75 73.525 75.225 68 68 68H34C26.775 68 21.25 73.525 21.25 80.75V89.25C21.25 91.8 19.55 93.5 17 93.5C14.45 93.5 12.75 91.8 12.75 89.25V80.75C12.75 68.85 22.1 59.5 34 59.5H68C79.9 59.5 89.25 68.85 89.25 80.75ZM51 42.5C43.775 42.5 38.25 36.975 38.25 29.75C38.25 22.525 43.775 17 51 17C58.225 17 63.75 22.525 63.75 29.75C63.75 36.975 58.225 42.5 51 42.5Z" fill="white"/>
<mask id="mask0_514_13764" style="mask-type:luminance" maskUnits="userSpaceOnUse" x="12" y="8" width="78" height="86">
<path fill-rule="evenodd" clip-rule="evenodd" d="M29.75 29.75C29.75 17.85 39.1 8.5 51 8.5C62.9 8.5 72.25 17.85 72.25 29.75C72.25 41.65 62.9 51 51 51C39.1 51 29.75 41.65 29.75 29.75ZM89.25 80.75V89.25C89.25 91.8 87.55 93.5 85 93.5C82.45 93.5 80.75 91.8 80.75 89.25V80.75C80.75 73.525 75.225 68 68 68H34C26.775 68 21.25 73.525 21.25 80.75V89.25C21.25 91.8 19.55 93.5 17 93.5C14.45 93.5 12.75 91.8 12.75 89.25V80.75C12.75 68.85 22.1 59.5 34 59.5H68C79.9 59.5 89.25 68.85 89.25 80.75ZM51 42.5C43.775 42.5 38.25 36.975 38.25 29.75C38.25 22.525 43.775 17 51 17C58.225 17 63.75 22.525 63.75 29.75C63.75 36.975 58.225 42.5 51 42.5Z" fill="white"/>
</mask>
<g mask="url(#mask0_514_13764)">
</g>
</svg>
