<svg width="15" height="16" viewBox="0 0 15 16" fill="none" xmlns="http://www.w3.org/2000/svg">
<path d="M14.7129 9.87627L13.5615 8.89189C13.616 8.55791 13.6441 8.21689 13.6441 7.87588C13.6441 7.53486 13.616 7.19385 13.5615 6.85986L14.7129 5.87549C14.7997 5.80114 14.8619 5.70213 14.8911 5.5916C14.9203 5.48107 14.9152 5.36427 14.8764 5.25674L14.8606 5.21103C14.5436 4.32514 14.0689 3.50391 13.4596 2.78701L13.4279 2.7501C13.354 2.66318 13.2555 2.60069 13.1453 2.57088C13.0352 2.54107 12.9186 2.54534 12.8109 2.58311L11.3818 3.09111C10.8545 2.65869 10.2656 2.31768 9.6293 2.07861L9.35332 0.584473C9.3325 0.472047 9.27797 0.368618 9.19696 0.287926C9.11596 0.207234 9.01231 0.1531 8.89981 0.132715L8.85235 0.123926C7.93653 -0.0413086 6.97325 -0.0413086 6.05743 0.123926L6.00997 0.132715C5.89746 0.1531 5.79382 0.207234 5.71281 0.287926C5.63181 0.368618 5.57727 0.472047 5.55645 0.584473L5.27872 2.08564C4.64746 2.32476 4.05961 2.66559 3.53848 3.09463L2.09883 2.58311C1.99119 2.54503 1.87452 2.54062 1.76431 2.57045C1.6541 2.60028 1.55558 2.66294 1.48184 2.7501L1.4502 2.78701C0.84155 3.50442 0.366993 4.32551 0.0492223 5.21103L0.033402 5.25674C-0.0456996 5.47646 0.0193395 5.72256 0.196879 5.87549L1.36231 6.87041C1.30782 7.20088 1.28145 7.53838 1.28145 7.87412C1.28145 8.21162 1.30782 8.54912 1.36231 8.87783L0.196879 9.87275C0.110035 9.9471 0.0478801 10.0461 0.0186785 10.1566C-0.0105231 10.2672 -0.0053877 10.384 0.033402 10.4915L0.0492223 10.5372C0.367386 11.4231 0.83848 12.2405 1.4502 12.9612L1.48184 12.9981C1.55576 13.0851 1.65429 13.1475 1.76443 13.1774C1.87457 13.2072 1.99116 13.2029 2.09883 13.1651L3.53848 12.6536C4.06231 13.0843 4.64766 13.4253 5.27872 13.6626L5.55645 15.1638C5.57727 15.2762 5.63181 15.3796 5.71281 15.4603C5.79382 15.541 5.89746 15.5951 6.00997 15.6155L6.05743 15.6243C6.98166 15.7904 7.92811 15.7904 8.85235 15.6243L8.89981 15.6155C9.01231 15.5951 9.11596 15.541 9.19696 15.4603C9.27797 15.3796 9.3325 15.2762 9.35332 15.1638L9.6293 13.6696C10.2654 13.4312 10.8576 13.0891 11.3818 12.6571L12.8109 13.1651C12.9186 13.2032 13.0353 13.2076 13.1455 13.1778C13.2557 13.148 13.3542 13.0853 13.4279 12.9981L13.4596 12.9612C14.0713 12.2388 14.5424 11.4231 14.8606 10.5372L14.8764 10.4915C14.9555 10.2753 14.8904 10.0292 14.7129 9.87627ZM12.3135 7.06729C12.3574 7.33271 12.3803 7.60518 12.3803 7.87764C12.3803 8.1501 12.3574 8.42256 12.3135 8.68799L12.1975 9.39287L13.5106 10.5161C13.3115 10.9747 13.0602 11.4088 12.7617 11.8099L11.1305 11.2315L10.5785 11.6851C10.1584 12.0296 9.69082 12.3003 9.18457 12.4901L8.51485 12.7415L8.2002 14.4466C7.70374 14.5028 7.20252 14.5028 6.70606 14.4466L6.39141 12.738L5.72696 12.4831C5.22598 12.2933 4.76016 12.0226 4.34356 11.6798L3.79161 11.2245L2.14981 11.8081C1.85098 11.4056 1.60137 10.9714 1.40098 10.5144L2.72813 9.38057L2.61387 8.67744C2.57168 8.41553 2.54883 8.14482 2.54883 7.87764C2.54883 7.60869 2.56993 7.33975 2.61387 7.07783L2.72813 6.37471L1.40098 5.24092C1.59961 4.78213 1.85098 4.34971 2.14981 3.94717L3.79161 4.53076L4.34356 4.07549C4.76016 3.73271 5.22598 3.46201 5.72696 3.27217L6.39317 3.0208L6.70782 1.31221C7.20176 1.25596 7.70625 1.25596 8.20196 1.31221L8.51661 3.01729L9.18633 3.26865C9.69083 3.4585 10.1602 3.7292 10.5803 4.07373L11.1322 4.52725L12.7635 3.94893C13.0623 4.35146 13.3119 4.78564 13.5123 5.24268L12.1992 6.36592L12.3135 7.06729ZM7.45665 4.60811C5.74805 4.60811 4.3629 5.99326 4.3629 7.70186C4.3629 9.41045 5.74805 10.7956 7.45665 10.7956C9.16524 10.7956 10.5504 9.41045 10.5504 7.70186C10.5504 5.99326 9.16524 4.60811 7.45665 4.60811ZM8.84883 9.09404C8.66623 9.27717 8.44923 9.42238 8.21031 9.52133C7.97138 9.62028 7.71525 9.67101 7.45665 9.67061C6.93106 9.67061 6.43711 9.46494 6.06446 9.09404C5.88133 8.91145 5.73612 8.69444 5.63717 8.45552C5.53822 8.21659 5.48749 7.96046 5.48789 7.70186C5.48789 7.17627 5.69356 6.68232 6.06446 6.30967C6.43711 5.93701 6.93106 5.73311 7.45665 5.73311C7.98223 5.73311 8.47618 5.93701 8.84883 6.30967C9.03196 6.49227 9.17717 6.70927 9.27612 6.94819C9.37507 7.18712 9.4258 7.44325 9.4254 7.70186C9.4254 8.22744 9.21973 8.72139 8.84883 9.09404Z" fill="#B9B9C3"/>
</svg>
