<svg width="131" height="72" viewBox="0 0 131 72" fill="none" xmlns="http://www.w3.org/2000/svg">
<g filter="url(#filter0_d_514_179)">
<rect x="4" y="4" width="119" height="60" rx="10" fill="white" fill-opacity="0.5"/>
</g>
<path d="M102 30L90.5 41L79 30" stroke="#5E5873" stroke-width="6" stroke-linecap="round" stroke-linejoin="round"/>
<path d="M39.5 31C37.5109 31 35.6032 30.2625 34.1967 28.9497C32.7902 27.637 32 25.8565 32 24C32 22.1435 32.7902 20.363 34.1967 19.0503C35.6032 17.7375 37.5109 17 39.5 17C41.4891 17 43.3968 17.7375 44.8033 19.0503C46.2098 20.363 47 22.1435 47 24C47 25.8565 46.2098 27.637 44.8033 28.9497C43.3968 30.2625 41.4891 31 39.5 31Z" stroke="#5E5873" stroke-width="5" stroke-linecap="round"/>
<path d="M26 49V46.8C26 44.4661 26.9482 42.2278 28.636 40.5775C30.3239 38.9271 32.6131 38 35 38H44C46.3869 38 48.6761 38.9271 50.364 40.5775C52.0518 42.2278 53 44.4661 53 46.8V49" stroke="#5E5873" stroke-width="5" stroke-linecap="round"/>
<defs>
<filter id="filter0_d_514_179" x="0" y="0" width="131" height="72" filterUnits="userSpaceOnUse" color-interpolation-filters="sRGB">
<feFlood flood-opacity="0" result="BackgroundImageFix"/>
<feColorMatrix in="SourceAlpha" type="matrix" values="0 0 0 0 0 0 0 0 0 0 0 0 0 0 0 0 0 0 127 0" result="hardAlpha"/>
<feMorphology radius="3" operator="dilate" in="SourceAlpha" result="effect1_dropShadow_514_179"/>
<feOffset dx="2" dy="2"/>
<feGaussianBlur stdDeviation="1.5"/>
<feColorMatrix type="matrix" values="0 0 0 0 0 0 0 0 0 0 0 0 0 0 0 0 0 0 0.1 0"/>
<feBlend mode="normal" in2="BackgroundImageFix" result="effect1_dropShadow_514_179"/>
<feBlend mode="normal" in="SourceGraphic" in2="effect1_dropShadow_514_179" result="shape"/>
</filter>
</defs>
</svg>
